<svg width="180" height="40" viewBox="0 0 180 40" xmlns="http://www.w3.org/2000/svg"><g fill="none"><path d="M23.736 21.459c0 6.716-4.755 11.606-11.002 11.606a8.335 8.335 0 0 1-6.609-3.022V32.5H0V1.834h6.327V12.58a8.496 8.496 0 0 1 6.407-2.74c6.247.013 11.002 4.97 11.002 11.619zm-6.448-.04a5.528 5.528 0 0 0-5.601-5.763 5.581 5.581 0 0 0-5.642 5.763c0 3.224 2.297 5.843 5.642 5.843 3.344 0 5.601-2.62 5.601-5.843zm63.047 1.941l-1.25 1.168v7.98H72.76V1.84h6.327v15.636l7.415-7.052h7.818l-9.672 8.986 10.316 13.097h-7.656zM94.977 4.42A3.7 3.7 0 0 1 98.765.671a3.687 3.687 0 0 1 3.748 3.747 3.667 3.667 0 0 1-3.748 3.748 3.674 3.674 0 0 1-3.788-3.748zm.564 28.087V10.424h6.334v22.083H95.54zM120.513 1.84h6.327v30.667h-6.327zm32.131 8.584v22.083h-5.964v-2.256a9.269 9.269 0 0 1-6.81 2.82c-6.368 0-10.881-5.158-10.881-11.726 0-6.569 4.634-11.485 10.88-11.485a9.235 9.235 0 0 1 6.81 2.901v-2.337h5.965zm-5.964 11.001a5.682 5.682 0 0 0-5.723-5.803 5.615 5.615 0 0 0-5.641 5.803 5.662 5.662 0 0 0 5.641 5.884 5.73 5.73 0 0 0 5.723-5.89v.006zm33.105.034c0 6.716-4.755 11.606-11.001 11.606a8.335 8.335 0 0 1-6.61-3.022V32.5h-6.125V1.834h6.327V12.58a8.496 8.496 0 0 1 6.408-2.74c6.232.013 11.001 4.97 11.001 11.619zm-6.448-.04a5.528 5.528 0 0 0-5.601-5.763 5.581 5.581 0 0 0-5.642 5.763c0 3.224 2.297 5.843 5.642 5.843s5.588-2.62 5.588-5.843h.013z" fill="#1565C0"/><path d="M46.128 12.768a12.264 12.264 0 0 0-8.69-3.6 12.264 12.264 0 0 0-8.692 3.6 12.264 12.264 0 0 0-3.6 8.691 12.264 12.264 0 0 0 3.6 8.691 12.264 12.264 0 0 0 8.691 3.6 12.264 12.264 0 0 0 8.691-3.6 12.264 12.264 0 0 0 3.6-8.691 12.264 12.264 0 0 0-3.6-8.691zm-4.473 12.909a5.93 5.93 0 0 1-4.218 1.746 5.93 5.93 0 0 1-4.218-1.746 5.93 5.93 0 0 1-1.746-4.218 5.93 5.93 0 0 1 1.746-4.218 5.93 5.93 0 0 1 4.218-1.746 5.93 5.93 0 0 1 4.218 1.746 5.93 5.93 0 0 1 1.746 4.218 5.93 5.93 0 0 1-1.746 4.218z" fill="#8BC34A"/><path d="M40.6 21.459c-.002-1.515.28-3.016.834-4.426a5.924 5.924 0 0 0-4.03-1.538 5.944 5.944 0 0 0-2.33.47 18.363 18.363 0 0 0-.834 5.494 18.363 18.363 0 0 0 .833 5.494 5.94 5.94 0 0 0 2.33.47 5.917 5.917 0 0 0 4.03-1.538 12.043 12.043 0 0 1-.832-4.426z" fill="#4FC3F7"/><path d="M65.673 8.456A18.356 18.356 0 0 0 52.67 3.083a18.356 18.356 0 0 0-13.769 6.179 12.264 12.264 0 0 1 6.327 2.687 11.989 11.989 0 0 1 7.435-2.566c3.2-.005 6.27 1.266 8.53 3.533a12.016 12.016 0 0 1 3.533 8.53c.005 3.2-1.266 6.27-3.533 8.53a12.016 12.016 0 0 1-8.53 3.532 11.989 11.989 0 0 1-7.435-2.565 12.264 12.264 0 0 1-6.327 2.686 18.35 18.35 0 0 0 13.762 6.18 18.35 18.35 0 0 0 18.383-18.384 18.35 18.35 0 0 0-5.373-12.969z" fill="#4FC3F7"/><path d="M44.113 29.996c.346.346.711.67 1.095.973a12.264 12.264 0 0 1-6.327 2.687 18.376 18.376 0 0 1-3.794-6.716 5.94 5.94 0 0 0 2.33.47 5.917 5.917 0 0 0 4.03-1.538 12.09 12.09 0 0 0 2.666 4.124zM41.427 17.04a12.09 12.09 0 0 1 3.781-5.085 12.264 12.264 0 0 0-6.327-2.686 18.376 18.376 0 0 0-3.794 6.716 5.944 5.944 0 0 1 2.33-.47c1.48-.01 2.91.533 4.01 1.525z" fill="#2B9548"/><path d="M94.319 10.424l-9.672 8.986m33.401 6.529l-.524.282a7.657 7.657 0 0 1-3.627 1.088c-1.975 0-2.942-1.209-2.942-3.748v-7.898h7.093v-5.24h-7.093V2.607L104.65 5.46v18.706c0 5.924 2.686 8.906 7.878 8.906 1.9-.01 3.777-.403 5.52-1.156V25.94z" fill="#1565C0"/></g></svg>