<svg width="528" height="483" viewBox="0 0 528 483" xmlns="http://www.w3.org/2000/svg" xmlns:xlink="http://www.w3.org/1999/xlink"><defs><path id="a" d="M0 483.999h527.667V1H0z"/></defs><g transform="translate(0 -1)" fill="none" fill-rule="evenodd"><path d="M459.269 291.95h1.5c-.001-106.065-85.983-192.046-192.048-192.047-106.067 0-192.048 85.982-192.048 192.048s85.981 192.047 192.048 192.048c106.065-.001 192.047-85.982 192.048-192.048h-3c-.001 52.209-21.157 99.462-55.371 133.677-34.216 34.214-81.468 55.37-133.677 55.372-52.209-.001-99.462-21.158-133.677-55.372-34.214-34.215-55.371-81.468-55.372-133.677.001-52.21 21.158-99.462 55.372-133.677 34.215-34.214 81.468-55.37 133.677-55.371 52.209 0 99.461 21.157 133.677 55.37 34.214 34.216 55.37 81.469 55.371 133.678h1.5z" fill="#F4FBFF"/><path d="M1.49 20.649c18.548-10.595 40.017-16.65 62.912-16.65 35.078 0 66.823 14.215 89.813 37.202 22.987 22.99 37.201 54.734 37.202 89.813 0 35.079-14.215 66.823-37.202 89.813-22.99 22.987-54.734 37.2-89.813 37.2-22.896 0-44.366-6.054-62.914-16.65L0 243.982c18.985 10.847 40.975 17.046 64.402 17.046 71.806-.001 130.013-58.208 130.014-130.014C194.416 59.208 136.208 1 64.402 1 40.976.999 18.987 7.198.002 18.044l1.49 2.606-.002-.001m59.638 353.132h1.5c.001-22.486 9.11-42.829 23.844-57.565 14.738-14.736 35.081-23.844 57.567-23.846 22.485.002 42.828 9.11 57.566 23.846 14.734 14.736 23.843 35.08 23.844 57.565 0 22.486-9.11 42.83-23.844 57.567-14.738 14.734-35.08 23.844-57.566 23.844-22.486 0-42.829-9.11-57.567-23.844-14.734-14.738-23.843-35.08-23.844-57.567h-3c.001 46.62 37.791 84.41 84.411 84.41 46.62 0 84.41-37.79 84.41-84.41 0-46.618-37.79-84.41-84.41-84.41s-84.41 37.792-84.41 84.41h1.5z" fill="#F4FBFF"/><path d="M213 147.897a1.5 1.5 0 1 1 0 3c.976 0 1.846.39 2.488 1.03a3.496 3.496 0 0 1 1.03 2.489v4.042a3.5 3.5 0 0 1-1.03 2.488 3.505 3.505 0 0 1-2.488 1.03h-22.293a130.454 130.454 0 0 1-.772 3H213a6.52 6.52 0 0 0 6.518-6.518v-4.042a6.52 6.52 0 0 0-6.518-6.52m-25.383 14.08h-22.983l2.472 3h19.72c.275-.995.538-1.994.79-3m-24.863 2.438a.906.906 0 0 0 .028.032l-.028-.032" fill="#55C1F0"/><path d="M190.706 161.977h-3.09a125.823 125.823 0 0 1-.79 3h3.11c.267-.994.525-1.997.77-3" fill="#51BEF0"/><path d="M213 147.897h-19.67a128.83 128.83 0 0 1-.425 3H213a1.5 1.5 0 1 1 0-3m-22.696 0H153.03l2.471 3h34.368c.156-.995.303-1.998.435-3m-39.218 2.36c.044.064.094.124.148.18l-.148-.18" fill="#8CC04D"/><path d="M193.33 147.897h-3.025a128.887 128.887 0 0 1-.435 3h3.035c.153-.996.295-1.997.425-3" fill="#86BD4D"/><path d="M213 147.897a1.5 1.5 0 1 0-.002 2.998 1.5 1.5 0 0 0 .002-2.998" fill="#2F9148"/><path d="M135.197 64.315c-8.388-.001-17.005 2.142-25.104 6.82-8.378 4.836-14.685 11.507-18.883 19.082-4.199 7.576-6.295 16.053-6.295 24.528 0 8.473 2.096 16.95 6.295 24.526 4.198 7.576 10.505 14.247 18.883 19.083a51.157 51.157 0 0 0 12.181 5.093l2.107-2.556c-4.323-1.04-8.62-2.729-12.788-5.134-7.907-4.568-13.813-10.825-17.759-17.94-3.944-7.115-5.919-15.092-5.919-23.072 0-7.981 1.975-15.958 5.92-23.073 3.945-7.116 9.851-13.373 17.758-17.939 7.646-4.413 15.725-6.417 23.604-6.418 3.405 0 6.773.376 10.05 1.095.66-.937 1.43-1.79 2.294-2.538a49.892 49.892 0 0 0-12.344-1.557" fill="#55C1F0"/><path d="M135.273 78.593c-19.968.001-36.152 16.185-36.153 36.152 0 19.099 14.81 34.737 33.573 36.061l2.397-2.91c-9.088-.05-17.296-3.747-23.26-9.71-6.002-6.003-9.71-14.282-9.71-23.441 0-9.16 3.707-17.438 9.71-23.442 6.005-6.002 14.282-9.71 23.443-9.711 3.112 0 6.12.429 8.972 1.229a13.89 13.89 0 0 1-1.215-3.394 36.326 36.326 0 0 0-7.757-.834m1.736 71.695l-.094.114a2.03 2.03 0 0 0 .094-.114" fill="#8CC04D"/><path d="M170.686 118.731v-54.44a3.502 3.502 0 0 1 1.031-2.489 3.507 3.507 0 0 1 2.49-1.03h19.727a1.5 1.5 0 1 0 0-3h-19.727a6.52 6.52 0 0 0-6.52 6.518v54.441a1.5 1.5 0 0 0 3 0" fill="#55C1F0"/><path d="M193.934 57.77a1.5 1.5 0 0 1 0 3 3.505 3.505 0 0 1 2.489 1.032 3.503 3.503 0 0 1 1.03 2.489v49.27c.998-.4 1.995-.788 3-1.17v-48.1a6.52 6.52 0 0 0-6.52-6.52m6.52 57.833a190.94 190.94 0 0 0-3 1.192v1.935a3.502 3.502 0 0 1-1.03 2.488 3.5 3.5 0 0 1-2.297 1.026l.003.048a1.5 1.5 0 0 1 1.144 1.457v1.362a6.52 6.52 0 0 0 5.18-6.381v-3.127" fill="#8CC04D"/><path d="M200.453 112.39c-1.005.383-2.002.772-3 1.17v3.236c.996-.405 1.997-.803 3-1.191v-3.214m-6.328 9.854a4.03 4.03 0 0 1-.192.005h-.16c.122 0 .241.015.355.043l-.003-.048" fill="#86BD4D"/><path d="M193.934 57.77a1.5 1.5 0 1 0 0 3.001 1.5 1.5 0 0 0 0-3" fill="#2F9148"/><path d="M167.687 118.731a6.522 6.522 0 0 0 5.181 6.381v-1.362a1.5 1.5 0 0 1 1.499-1.5h-.16a3.497 3.497 0 0 1-2.489-1.03 3.5 3.5 0 0 1-1.031-2.45 1.501 1.501 0 0 1-3-.039" fill="#8CC04D"/><path d="M169.187 117.23a1.5 1.5 0 1 0 1.5 1.54v-.04a1.5 1.5 0 0 0-1.5-1.5" fill="#2F9148"/><path d="M191.12 122.25h-5.808a187.41 187.41 0 0 0-5.833 3h11.81a129.162 129.162 0 0 0-.17-3m-12.392 0h-4.36a1.5 1.5 0 0 1 1.5 1.5v.052a179.06 179.06 0 0 1 2.86-1.552" fill="#8CC04D"/><path d="M185.312 122.25h-6.585a192.23 192.23 0 0 0-2.86 1.552v1.448h3.613a186.245 186.245 0 0 1 5.832-3m8.461 0h-2.654c.068.999.125 1.996.17 3h.984v-1.5a1.5 1.5 0 0 1 1.5-1.5" fill="#86BD4D"/><path d="M108.73 178.72a6.52 6.52 0 0 0-6.52 6.52v4.04a6.498 6.498 0 0 0 1.57 4.243c.57-.953 1.139-1.887 1.725-2.83a3.501 3.501 0 0 1-.294-1.413v-4.04a3.503 3.503 0 0 1 1.03-2.49 3.505 3.505 0 0 1 2.49-1.03h1.625a1.5 1.5 0 0 1-1.118-2.454l.45-.547h-.957m-.926 13.959c-.537.869-1.067 1.74-1.59 2.619a6.5 6.5 0 0 0 2.516.502 1.5 1.5 0 1 1 0-2.999 3.52 3.52 0 0 1-.926-.123" fill="#8CC04D"/><path d="M105.505 190.693c-.586.942-1.155 1.876-1.725 2.829a6.527 6.527 0 0 0 2.435 1.775 188.18 188.18 0 0 1 1.59-2.62 3.542 3.542 0 0 1-2.3-1.985" fill="#86BD4D"/><path d="M113.577 178.72l-2.023 2.454a1.5 1.5 0 0 1-1.12.546h1.004a192.422 192.422 0 0 1 2.15-3h-.011m3.744 0c-.744.992-1.478 1.993-2.202 3h62.585a1.494 1.494 0 0 1-1.137-.547l-2.022-2.453H117.32" fill="#8CC04D"/><path d="M113.588 178.72a183.37 183.37 0 0 0-2.15 3h3.68a190.818 190.818 0 0 1 2.203-3h-3.733" fill="#86BD4D"/><path d="M178.432 178.72l.45.545a1.5 1.5 0 0 1-1.14 2.455h3.15c.432-.993.854-1.995 1.262-3h-3.722m6.953 0a130.91 130.91 0 0 1-1.228 3h20.168a1.5 1.5 0 0 1-.048-3h-18.892" fill="#8CC04D"/><path d="M182.154 178.72a127.487 127.487 0 0 1-1.262 3h3.265c.422-.995.83-1.993 1.228-3h-3.231" fill="#86BD4D"/><path d="M204.325 178.72h-.048.048a1.5 1.5 0 1 1 0 3 3.502 3.502 0 0 1 2.488 1.03 3.504 3.504 0 0 1 1.032 2.49v4.04a3.506 3.506 0 0 1-1.032 2.49 3.502 3.502 0 0 1-2.488 1.03h-25.5a132.757 132.757 0 0 1-1.675 3h27.175a6.52 6.52 0 0 0 6.52-6.52v-4.04a6.52 6.52 0 0 0-6.52-6.52m-28.923 14.08H108.73a1.5 1.5 0 1 1 0 3h64.944c.59-.993 1.165-1.99 1.728-3" fill="#55C1F0"/><path d="M178.825 192.8h-3.423a128.79 128.79 0 0 1-1.727 3h3.475a131.12 131.12 0 0 0 1.675-3" fill="#51BEF0"/><path d="M204.277 178.72a1.5 1.5 0 1 0 .048 0h-.048m-95.546 14.08a1.5 1.5 0 1 0-.002 3 1.5 1.5 0 0 0 .002-3" fill="#2F9148"/><path d="M193.773 31.825h-19.405c-.395 0-.782.16-1.061.44a1.51 1.51 0 0 0-.44 1.06V44.08c0 .395.16.782.44 1.062.279.28.666.44 1.06.44h3.654V44.08a1.5 1.5 0 0 1 1.5-1.499h-3.654v-7.755h16.406v7.755h-3.652a1.5 1.5 0 0 1 1.5 1.5v1.5h3.652c.4 0 .777-.156 1.06-.439.284-.284.44-.66.44-1.062h-1.5v-1.5 1.5h1.5V33.324c0-.394-.16-.78-.44-1.06a1.514 1.514 0 0 0-1.06-.44M188.62 42.58h-9.1a1.5 1.5 0 0 1 1.499 1.5v1.5h6.1v-1.5a1.5 1.5 0 0 1 1.5-1.5m6.654 82.532c-.32.067-.648.11-.982.128a133.267 133.267 0 0 1 .055 10.082c.18-.074.345-.184.487-.326a1.49 1.49 0 0 0 .44-1.06v-8.824m-22.405 0v.385l.519-.298a6.766 6.766 0 0 1-.52-.087m3 2.127a185.235 185.235 0 0 0-3 1.731v4.965a1.506 1.506 0 0 0 1.5 1.501h16.975c.033-.997.055-1.999.066-3h-15.54v-5.197" fill="#55C1F0"/><path d="M173.386 125.199l-.519.298v3.473c.996-.587 1.993-1.162 3-1.731v-1.99h-1.66c-.278 0-.552-.016-.82-.05m20.903.041c-.118.006-.237.01-.357.01h-1.66v7.185h-.864a129.772 129.772 0 0 1-.068 3h2.431c.2 0 .394-.039.574-.113a133.267 133.267 0 0 0-.056-10.082" fill="#51BEF0"/><path d="M194.128 122.293c.065.983.12 1.959.162 2.947.335-.018.663-.061.982-.128v-1.362a1.5 1.5 0 0 0-1.144-1.457" fill="#2F9148"/><path d="M193.773 122.25a1.5 1.5 0 0 0-1.5 1.5v1.5h1.66a8.46 8.46 0 0 0 .358-.01 130.32 130.32 0 0 0-.163-2.947 1.527 1.527 0 0 0-.355-.043" fill="#2D8F48"/><path d="M174.367 122.25a1.5 1.5 0 0 0-1.5 1.5v1.362c.171.035.344.065.52.087.827-.474 1.644-.934 2.48-1.397v-.052a1.5 1.5 0 0 0-1.5-1.5" fill="#2F9148"/><path d="M175.867 123.802c-.836.463-1.653.922-2.48 1.397.268.034.542.05.82.05h1.66v-1.447" fill="#2D8F48"/><mask id="b" fill="#fff"><use xlink:href="#a"/></mask><path fill="#8CC04D" mask="url(#b)" d="M187.12 57.771h3V45.58h-3z"/><path d="M190.12 57.77h-3v1.502a1.5 1.5 0 0 0 3 0V57.77m-1.5-15.19a1.5 1.5 0 0 0-1.5 1.5v1.5h3v-1.5a1.5 1.5 0 0 0-1.5-1.5" fill="#2F9148" mask="url(#b)"/><path fill="#8CC04D" mask="url(#b)" d="M178.02 57.771h3V45.58h-3z"/><path d="M181.02 57.77h-3v1.502a1.5 1.5 0 0 0 3 0V57.77m-1.5-15.19a1.5 1.5 0 0 0-1.5 1.5v1.5h3v-1.5a1.5 1.5 0 0 0-1.5-1.5" fill="#2F9148" mask="url(#b)"/><path d="M156.699 62.458a13.935 13.935 0 0 0-9.158 3.414c.27.069.538.14.806.213a1.5 1.5 0 1 1-.79 2.894 47.688 47.688 0 0 0-2.309-.568 13.915 13.915 0 0 0-2.537 8.034c0 1.024.11 2.022.319 2.983.916.2 1.82.435 2.71.704a1.5 1.5 0 0 1-.868 2.872 26.513 26.513 0 0 0-.627-.182 13.993 13.993 0 0 0 12.454 7.612 13.965 13.965 0 0 0 10.988-5.332v-8.657a10.952 10.952 0 0 1-3.219 7.77 10.942 10.942 0 0 1-7.769 3.218 10.948 10.948 0 0 1-7.77-3.217 10.96 10.96 0 0 1-3.219-7.771 10.954 10.954 0 0 1 3.219-7.77 10.945 10.945 0 0 1 7.77-3.217c3.039 0 5.777 1.227 7.769 3.218a10.946 10.946 0 0 1 3.219 7.769v-8.656a13.964 13.964 0 0 0-10.988-5.331" fill="#8CC04D" mask="url(#b)"/><path d="M147.541 65.872a14.017 14.017 0 0 0-2.294 2.539c.776.17 1.546.359 2.31.568a1.5 1.5 0 0 0 .79-2.894 56.194 56.194 0 0 0-.806-.213" fill="#2F9148" mask="url(#b)"/><path d="M143.03 79.427c.26 1.195.672 2.334 1.215 3.394.21.06.42.12.627.182a1.5 1.5 0 0 0 1.869-1.002 1.5 1.5 0 0 0-1.002-1.87 35.882 35.882 0 0 0-2.71-.704" fill="#4D9117" mask="url(#b)"/><path d="M167.687 67.789v8.656h3a13.935 13.935 0 0 0-3-8.656m3 8.656h-3v8.657a13.94 13.94 0 0 0 3-8.657" fill="#2F9148" mask="url(#b)"/><path d="M162.482 76.445h-1.5a4.264 4.264 0 0 1-1.255 3.03 4.261 4.261 0 0 1-3.028 1.253 4.266 4.266 0 0 1-3.03-1.254 4.268 4.268 0 0 1-1.254-3.029 4.266 4.266 0 0 1 1.254-3.029 4.27 4.27 0 0 1 3.03-1.255 4.266 4.266 0 0 1 3.028 1.255 4.263 4.263 0 0 1 1.255 3.03h3a7.283 7.283 0 1 0-14.566 0 7.283 7.283 0 0 0 14.566 0h-1.5zm-13.977 79.529h-1.5a2.95 2.95 0 0 1-2.945 2.945 2.95 2.95 0 0 1-2.945-2.945 2.95 2.95 0 0 1 2.945-2.945 2.95 2.95 0 0 1 2.945 2.945h3a5.945 5.945 0 1 0-11.891 0 5.945 5.945 0 0 0 11.89 0h-1.5z" fill="#55C1F0" mask="url(#b)"/><path d="M144.043 141.736c-2.424 0-4.824 1.142-6.56 3.258l-2.392 2.903h.182c.169-.001.34-.001.51-.004h.024a1.5 1.5 0 0 1 1.202 2.395l2.79-3.385c1.24-1.496 2.76-2.162 4.262-2.167a1.5 1.5 0 1 1 0-3h-.018m-7.128 8.666c-.27.297-.657.485-1.09.49a36.736 36.736 0 0 1-3.133-.087l-8.31 10.086c.295.07.59.139.885.204a1.5 1.5 0 0 1 1.099 1.945c.443-.49.887-.974 1.336-1.46l9.213-11.178m-14.64 13.046l-12.587 15.272h3.889l.099-.12a192.601 192.601 0 0 1 11.895-14.677 1.503 1.503 0 0 1-.948.102 50.505 50.505 0 0 1-2.348-.577" fill="#8CC04D" mask="url(#b)"/><path d="M127.701 161.58c-.448.486-.893.97-1.336 1.46a1.495 1.495 0 0 1-.795.883 193.086 193.086 0 0 0-11.895 14.677l14.026-17.02" fill="#86BD4D" mask="url(#b)"/><path d="M124.381 160.89l-2.107 2.558c.782.212 1.565.404 2.348.577a1.5 1.5 0 0 0 .948-.102c.264-.295.53-.59.795-.883a1.5 1.5 0 0 0-1.099-1.945c-.295-.065-.59-.133-.885-.204" fill="#2F9148" mask="url(#b)"/><path d="M126.366 163.04c-.266.293-.531.588-.795.883.366-.168.66-.481.795-.883" fill="#2C8F48" mask="url(#b)"/><path d="M135.806 147.893h-.022c-.172.003-.343.003-.512.004h-.182l-2.397 2.909a36.696 36.696 0 0 0 3.132.087 1.495 1.495 0 0 0 1.09-.491l.093-.114a1.499 1.499 0 0 0-1.202-2.395" fill="#4D9117" mask="url(#b)"/><path d="M110.435 181.72h-.079.079" fill="#8CC04D" mask="url(#b)"/><path d="M109.688 178.72l-.45.546a1.5 1.5 0 0 0 1.118 2.454h.079a1.5 1.5 0 0 0 1.119-.546l2.023-2.454h-3.889" fill="#4D9117" mask="url(#b)"/><path d="M144.078 141.736h-.018a1.5 1.5 0 1 1 0 3c.387 0 .775.046 1.159.138.874-.733 1.753-1.46 2.639-2.178a8.049 8.049 0 0 0-3.78-.96m6.209 2.855a210.35 210.35 0 0 0-2.33 1.905c.124.128.246.263.364.407l2.765 3.354a1.5 1.5 0 0 1 1.23-2.36h.713l-2.392-2.903a9.717 9.717 0 0 0-.35-.403m.947 5.846l11.52 13.977a1.5 1.5 0 0 1 1.172-2.437h.707l-9.132-11.08h-3.185a1.5 1.5 0 0 1-1.082-.46m11.547 14.009l11.764 14.274h3.887l-11.327-13.743h-3.18c-.458 0-.87-.206-1.144-.531" fill="#55C1F0" mask="url(#b)"/><path d="M147.858 142.696c-.886.719-1.766 1.445-2.639 2.178.964.232 1.904.757 2.74 1.622.77-.64 1.547-1.277 2.328-1.905a9.07 9.07 0 0 0-2.429-1.895" fill="#51BEF0" mask="url(#b)"/><path d="M164.633 161.977h-.708a1.5 1.5 0 0 0-1.172 2.437l.027.032a1.5 1.5 0 0 0 1.145.531h3.18l-2.472-3" fill="#1C92E2" mask="url(#b)"/><path d="M153.03 147.897h-.715a1.5 1.5 0 0 0-1.229 2.36l.148.18c.273.283.656.46 1.081.46h3.186l-2.472-3" fill="#2F9148" mask="url(#b)"/><path fill="#55C1F0" mask="url(#b)" d="M177.74 181.72h-.036.02z"/><path d="M174.544 178.72l2.022 2.454c.292.354.712.54 1.137.546h.037a1.501 1.501 0 0 0 1.141-2.454v-.001l-.449-.545h-3.888m-30.484-36.984a1.5 1.5 0 1 0-.001 3 1.5 1.5 0 0 0 .001-3" fill="#2F9148" mask="url(#b)"/><path d="M333.711 55.421h-19.293a1.504 1.504 0 0 0-1.5 1.5v40.337a41.262 41.262 0 0 0-11.776 5.37c1.488.253 2.981.525 4.457.812a38.36 38.36 0 0 1 9.178-3.569 1.502 1.502 0 0 0 1.141-1.456V58.42h16.293v39.995c0 .688.471 1.29 1.14 1.456a38.355 38.355 0 0 1 17.964 10.155 38.435 38.435 0 0 1 8.49 12.808c1.33.718 2.647 1.45 3.96 2.198a41.37 41.37 0 0 0-10.329-17.127 41.357 41.357 0 0 0-18.225-10.647V56.921c0-.395-.16-.78-.439-1.06a1.515 1.515 0 0 0-1.06-.44m-35.945 49.7a42.01 42.01 0 0 0-3.074 2.784c-8.108 8.107-12.168 18.745-12.167 29.371 0 10.625 4.06 21.265 12.167 29.372 8.104 8.105 18.742 12.165 29.365 12.165h.006c10.625.002 21.264-4.058 29.372-12.165s12.167-18.747 12.165-29.372c0-2.082-.155-4.164-.466-6.227a1.5 1.5 0 0 1-1.491 1.674h-1.31a38.94 38.94 0 0 1 .268 4.553c-.002 9.867-3.76 19.721-11.287 27.25-7.53 7.528-17.384 11.286-27.25 11.287-9.869 0-19.722-3.759-27.25-11.287-7.529-7.529-11.287-17.383-11.288-27.25 0-1.52.09-3.04.268-4.553h-1.308a1.5 1.5 0 1 1 0-3h1.783a38.352 38.352 0 0 1 10.544-19.697 38.849 38.849 0 0 1 5.016-4.234 193.234 193.234 0 0 0-4.063-.672m63.458 21.922c.243.887.455 1.781.633 2.681h1.786a1.5 1.5 0 0 1 1.474 1.22 41.6 41.6 0 0 0-.325-1.844 185.283 185.283 0 0 0-3.568-2.057" fill="#55C1F0" mask="url(#b)"/><path d="M301.142 102.628a41.464 41.464 0 0 0-3.375 2.492c1.36.21 2.714.434 4.063.672a38.483 38.483 0 0 1 3.77-2.352 192.18 192.18 0 0 0-4.458-.812m58.662 20.206a38.478 38.478 0 0 1 1.421 4.208c1.198.673 2.386 1.36 3.568 2.057a41.808 41.808 0 0 0-1.029-4.067 192.88 192.88 0 0 0-3.96-2.198" fill="#51BEF0" mask="url(#b)"/><path d="M361.858 129.723h-8.388a10.755 10.755 0 0 1 0 3h8.863a38.652 38.652 0 0 0-.475-3m3.26 1.22l.016.106a1.23 1.23 0 0 0-.016-.106" fill="#8CC04D" mask="url(#b)"/><path d="M363.644 129.723h-1.786c.198.995.356 1.995.475 3h1.311a1.5 1.5 0 1 0 0-3" fill="#2F9148" mask="url(#b)"/><path d="M350.429 129.723h-15.034a7.708 7.708 0 0 0 0 3h15.034a7.786 7.786 0 0 0 0-3m-18.075 0H286.27a39.133 39.133 0 0 0-.474 3h46.558c-.07-.49-.105-.991-.105-1.5h3-3c0-.509.036-1.01.105-1.5" fill="#8CC04D" mask="url(#b)"/><path d="M286.27 129.723h-1.783a1.5 1.5 0 1 0 0 3h1.308c.119-1.005.277-2.005.475-3" fill="#2F9148" mask="url(#b)"/><path d="M301.45 142.22a7.082 7.082 0 0 0-7.081 7.082h3-3a7.081 7.081 0 1 0 7.082-7.082m-4.081 7.082c0-1.133.454-2.144 1.195-2.887a4.066 4.066 0 0 1 2.886-1.195 4.063 4.063 0 0 1 2.885 1.195 4.063 4.063 0 0 1 1.196 2.887 4.064 4.064 0 0 1-1.196 2.885 4.06 4.06 0 0 1-2.885 1.195 4.061 4.061 0 0 1-2.886-1.195 4.058 4.058 0 0 1-1.195-2.885m45.542-28.742c-5.38.001-9.829 3.984-10.559 9.163h3.042a7.638 7.638 0 0 1 2.098-3.918 7.63 7.63 0 0 1 5.42-2.246 7.63 7.63 0 0 1 5.417 2.246 7.638 7.638 0 0 1 2.098 3.918h3.042c-.73-5.179-5.178-9.162-10.558-9.163m10.558 12.163h-3.042a7.641 7.641 0 0 1-2.098 3.919 7.634 7.634 0 0 1-5.418 2.245 7.634 7.634 0 0 1-5.419-2.245 7.641 7.641 0 0 1-2.098-3.919h-3.042c.73 5.179 5.18 9.162 10.56 9.163 5.378-.001 9.827-3.984 10.557-9.163" fill="#55C1F0" mask="url(#b)"/><path d="M353.47 129.723h-3.042a7.707 7.707 0 0 1 0 3h3.042a10.755 10.755 0 0 0 0-3m-18.075 0h-3.042c-.069.49-.104.991-.104 1.5h3-3c0 .509.035 1.01.105 1.5h3.041a7.707 7.707 0 0 1 0-3" fill="#2F9148" mask="url(#b)"/><path d="M368.955 350.838h-22.881c-.395 0-.782.16-1.061.439-.28.28-.44.666-.44 1.06v39.202l-16.206 28.07c.238-.158.525-.251.833-.251h2.777l15.396-26.667c.13-.227.2-.488.2-.75v-38.104h19.882v38.105c0 .26.07.522.2.749l15.397 26.667h2.778c.307 0 .593.092.83.25l-16.205-28.07v-39.2c0-.395-.16-.781-.44-1.061a1.507 1.507 0 0 0-1.06-.44m18.37 69.924a1.5 1.5 0 0 1-1.496 1.597h-1.045l5.36 9.284a12.333 12.333 0 0 1 1.458 3.978 185.65 185.65 0 0 0 2.548-2.22 15.356 15.356 0 0 0-1.408-3.258l-5.416-9.381m-59.624 0l-5.416 9.38a15.326 15.326 0 0 0-2.057 7.678 15.355 15.355 0 0 0 15.354 15.355h31.915a191.408 191.408 0 0 0 4.728-3h-36.643a12.356 12.356 0 0 1-10.7-18.531l5.362-9.285H329.2a1.5 1.5 0 0 1-1.498-1.597m67.067 16.089c-1.02.886-2.044 1.76-3.081 2.626a12.354 12.354 0 0 1-12.243 10.698H377.6a194.333 194.333 0 0 1-4.484 3h6.328a15.354 15.354 0 0 0 15.324-16.324" fill="#55C1F0" mask="url(#b)"/><path d="M394.15 433.4a215.27 215.27 0 0 1-2.548 2.22 12.401 12.401 0 0 1 .085 3.855 188.665 188.665 0 0 0 3.081-2.626 15.377 15.377 0 0 0-.619-3.45m-16.548 16.774h-5.376a191.408 191.408 0 0 1-4.728 3h5.62c1.51-.98 3.002-1.979 4.484-3" fill="#51BEF0" mask="url(#b)"/><path d="M383.051 419.357H352.16a8.51 8.51 0 0 1 .675 3h31.95l-1.733-3m3.61.252l.664 1.151a1.498 1.498 0 0 0-.664-1.15" fill="#8CC04D" mask="url(#b)"/><path d="M385.83 419.357h-2.779l1.733 3h1.045a1.5 1.5 0 0 0 1.497-1.597l-.665-1.15a1.493 1.493 0 0 0-.832-.253" fill="#2F9148" mask="url(#b)"/><path d="M348.719 419.357h-8.892a5.528 5.528 0 0 0-1.111 3h11.114a5.528 5.528 0 0 0-1.111-3m-12.333 0h-4.41l-1.731 3h5.467a8.57 8.57 0 0 1 .674-3m-8.02.252a1.503 1.503 0 0 0-.664 1.152l.665-1.152" fill="#8CC04D" mask="url(#b)"/><path d="M331.977 419.357H329.2c-.308 0-.595.093-.833.252l-.665 1.152a1.5 1.5 0 0 0 1.498 1.596h1.045l1.732-3" fill="#2F9148" mask="url(#b)"/><path d="M344.273 414.142a8.572 8.572 0 0 0-7.887 5.215h3.441a5.54 5.54 0 0 1 .51-.584 5.544 5.544 0 0 1 3.936-1.631 5.546 5.546 0 0 1 4.445 2.215h3.441a8.57 8.57 0 0 0-7.886-5.215m8.561 8.216h-3.004a5.549 5.549 0 0 1-1.62 4.289 5.546 5.546 0 0 1-3.937 1.63 5.544 5.544 0 0 1-3.937-1.63 5.536 5.536 0 0 1-1.62-4.29h-3.004a8.193 8.193 0 0 0-.008.353h3.001-3a8.569 8.569 0 1 0 17.13-.352" fill="#8CC04D" mask="url(#b)"/><path d="M352.16 419.357h-3.441a5.528 5.528 0 0 1 1.11 3h3.005a8.527 8.527 0 0 0-.674-3m-12.333 0h-3.441a8.549 8.549 0 0 0-.674 3h3.004a5.528 5.528 0 0 1 1.11-3" fill="#4D9117" mask="url(#b)"/><path d="M377.012 431.478a5.368 5.368 0 0 0-5.368 5.368h2.999-2.999a5.368 5.368 0 1 0 5.368-5.368m-2.369 5.368a2.372 2.372 0 0 1 2.369-2.368 2.372 2.372 0 0 1 2.368 2.368 2.372 2.372 0 0 1-2.368 2.368 2.372 2.372 0 0 1-2.369-2.368m-128.051-176.11a9.77 9.77 0 0 0-9.77 9.769v.589h3v-.59a6.75 6.75 0 0 1 1.984-4.786 6.737 6.737 0 0 1 4.786-1.982c1.874 0 3.557.755 4.786 1.982a6.741 6.741 0 0 1 1.983 4.787v.589h3v-.59a9.77 9.77 0 0 0-9.77-9.768m9.77 13.358h-3v2.665a1.5 1.5 0 0 0 3 0v-2.665m-16.538 0h-3v2.665a1.5 1.5 0 0 0 3 0v-2.665" fill="#55C1F0" mask="url(#b)"/><path d="M248.092 286.037v-4.302a1.5 1.5 0 1 0-3 0v4.302a1.5 1.5 0 1 0 3 0m14.971-14.943h-6.702v3h5.202v19.583h1.5a1.5 1.5 0 0 1 1.5 1.5v-22.583c0-.395-.16-.781-.44-1.061a1.509 1.509 0 0 0-1.06-.439zm-23.24 3h13.538v-3h-13.538v3zm-3-3h-6.701a1.5 1.5 0 1 0 1.5 1.5v1.5h5.2v-3z" fill="#8CC04D" mask="url(#b)"/><path d="M253.361 274.094h3v-3h-3v3zm-16.538 0h3v-3h-3v3z" fill="#2F9148" mask="url(#b)"/><path d="M264.562 295.177a1.5 1.5 0 0 1-1.5 1.5h-.048.048a1.5 1.5 0 0 0 1.5-1.5" fill="#8CC04D" mask="url(#b)"/><path d="M228.622 272.594v22.582c0 .396.16.783.439 1.063.28.278.666.438 1.06.438h32.894a1.5 1.5 0 0 1-1.452-1.5v-1.5h-29.941v-19.583h-1.5a1.5 1.5 0 0 1-1.5-1.5" fill="#55C1F0" mask="url(#b)"/><path d="M230.122 271.095a1.5 1.5 0 1 0 0 3h1.5v-1.5a1.5 1.5 0 0 0-1.5-1.5m32.94 22.582h-1.5v1.5a1.5 1.5 0 0 0 1.453 1.5h.048a1.5 1.5 0 1 0 0-3" fill="#2F9148" mask="url(#b)"/><path d="M457.705 225.953h-8.577c.363.994.721 1.999 1.07 3h7.507v-3zm-30.342 3h9.264v-3h-9.264v3zm-21.077 0h9.263v-3h-9.263v3z" fill="#8CC04D" mask="url(#b)"/><path d="M449.128 225.953h-.686v3h1.756a194.108 194.108 0 0 0-1.07-3" fill="#86BD4D" mask="url(#b)"/><path d="M526.166 225.953h-6.009a1.5 1.5 0 0 1 1.5 1.5v1.5h4.51a1.5 1.5 0 1 0 0-3zm-6.009 0h-6.988a1.5 1.5 0 0 1 1.501 1.5v1.5h3.987v-1.5a1.5 1.5 0 0 1 1.5-1.5zm-6.988 0h-10.308v3h8.81v-1.5a1.5 1.5 0 0 1 1.498-1.5zm-22.57 3h9.262v-3h-9.263v3zm-8.816 0h5.814v-3h-5.814v3zm-12.264 0h9.264v-3h-9.264v3zm-8.814 0h5.815v-3h-5.815v3zm-21.078 0h5.814v-3h-5.814v3zm-21.077 0h5.814v-3h-5.814v3zm-15.264-3h-10.309a1.5 1.5 0 0 1 1.5 1.5v1.5h8.81v-3zm-10.309 0h-6.988a1.5 1.5 0 0 1 1.5 1.5v1.5h3.988v-1.5a1.5 1.5 0 0 1 1.5-1.5zm-6.988 0h-6.009a1.5 1.5 0 1 0 0 3h4.51v-1.5a1.5 1.5 0 0 1 1.5-1.5zm140.177 49.952h-4.509v1.5a1.5 1.5 0 0 1-3 0v-1.5h-3.987v1.5a1.5 1.5 0 0 1-3 0v-1.5h-51.563c.083 1.001.158 1.994.225 2.999h64.334v-1.499a1.5 1.5 0 0 1 1.5-1.5m-69.069 0h-62.62v1.5a1.5 1.5 0 0 1-3 0v-1.5h-3.988v1.5a1.5 1.5 0 0 1-3 0v-1.5h-4.509c-.395 0-.78.16-1.06.439-.28.28-.44.666-.44 1.061v18.045a1.5 1.5 0 1 0 1.5-1.499h1.5v-15.047h75.846a197.597 197.597 0 0 0-.229-2.999" fill="#8CC04D" mask="url(#b)"/><path d="M460.108 275.905h-3.01c.084.998.16 1.997.228 2.999h3.007a197.606 197.606 0 0 0-.225-2.999" fill="#86BD4D" mask="url(#b)"/><path d="M526.166 275.905a1.5 1.5 0 1 1 0 2.999h-1.5v15.047h-63.908c-.01 1.001-.028 2.002-.053 3l65.461-.001c.401 0 .777-.156 1.061-.439a1.49 1.49 0 0 0 .44-1.061v-18.045a1.5 1.5 0 0 0-1.5-1.5m-68.408 18.046H381.48v1.499a1.5 1.5 0 0 1-1.5 1.501h77.724c.026-1.001.044-1.996.055-3" fill="#55C1F0" mask="url(#b)"/><path d="M460.759 293.95h-3c-.01 1.006-.029 2-.055 3h3c.026-.996.044-1.998.055-3" fill="#51BEF0" mask="url(#b)"/><path d="M526.166 275.905a1.5 1.5 0 0 0-1.5 1.5v1.499h1.5a1.5 1.5 0 1 0 0-2.999M381.48 293.951h-1.5a1.5 1.5 0 1 0 1.5 1.499v-1.499" fill="#2F9148" mask="url(#b)"/><path fill="#55C1F0" mask="url(#b)" d="M384.49 275.905h3v-46.952h-3z"/><path d="M385.99 225.953a1.5 1.5 0 0 0-1.5 1.5v1.5h3v-1.5a1.5 1.5 0 0 0-1.5-1.5m1.5 49.952h-3v1.5a1.5 1.5 0 0 0 3 0v-1.5" fill="#2F9148" mask="url(#b)"/><path fill="#55C1F0" mask="url(#b)" d="M391.477 275.905h3v-46.952h-3z"/><path d="M392.977 225.953a1.5 1.5 0 0 0-1.5 1.5v1.5h3v-1.5a1.5 1.5 0 0 0-1.5-1.5m1.5 49.952h-3v1.5a1.5 1.5 0 0 0 3 0v-1.5" fill="#2F9148" mask="url(#b)"/><path fill="#55C1F0" mask="url(#b)" d="M518.658 275.905h3v-46.952h-3z"/><path d="M520.157 225.953a1.5 1.5 0 0 0-1.5 1.5v1.5h3v-1.5a1.5 1.5 0 0 0-1.5-1.5m1.501 49.952h-3v1.5a1.5 1.5 0 0 0 3 0v-1.5" fill="#2F9148" mask="url(#b)"/><path fill="#55C1F0" mask="url(#b)" d="M511.67 275.905h3v-46.952h-3z"/><path d="M513.17 225.953a1.5 1.5 0 0 0-1.5 1.5v1.5h3v-1.5a1.5 1.5 0 0 0-1.5-1.5m1.5 49.952h-3v1.5a1.5 1.5 0 0 0 3 0v-1.5" fill="#2F9148" mask="url(#b)"/><path d="M417.049 212.434h-12.263c-.395 0-.782.16-1.06.439-.28.28-.44.666-.44 1.06v12.02h3v-10.52h9.263v10.52h3v-12.02c0-.394-.16-.78-.44-1.06a1.511 1.511 0 0 0-1.06-.44m-1.5 1.5h1.5-1.5m3 15.02h-3v5.796h1.5a1.5 1.5 0 0 1 1.5 1.5v-7.296m-12.263 0h-3v37.539a7.63 7.63 0 0 0 7.632 7.63 7.632 7.632 0 0 0 7.632-7.63V236.25a1.5 1.5 0 0 1-1.501 1.5h-1.5v28.742a4.609 4.609 0 0 1-1.356 3.275 4.61 4.61 0 0 1-3.275 1.357 4.61 4.61 0 0 1-3.276-1.357 4.613 4.613 0 0 1-1.356-3.275V237.75h-1.5a1.5 1.5 0 1 1 0-3.001h1.5v-5.796" fill="#55C1F0" mask="url(#b)"/><path d="M415.549 228.953h3v-3h-3v3zm-12.264 0h3v-3h-3v3z" fill="#2F9148" mask="url(#b)"/><path d="M438.127 212.434h-12.264c-.395 0-.78.16-1.06.439-.28.28-.439.666-.439 1.06v12.02h3v-10.52h9.263v10.52h3v-12.02c0-.394-.16-.78-.439-1.06a1.513 1.513 0 0 0-1.06-.44m-1.5 1.5h1.5-1.5m3 15.02h-3v12.826h1.5a1.5 1.5 0 0 1 1.5 1.499v-14.325m-12.265 0h-2.999v37.539a7.632 7.632 0 0 0 15.263 0v-23.214a1.5 1.5 0 0 1-1.5 1.5h-1.5v21.714a4.61 4.61 0 0 1-1.357 3.275 4.61 4.61 0 0 1-3.275 1.357 4.61 4.61 0 0 1-3.275-1.357 4.61 4.61 0 0 1-1.357-3.275v-21.713h-1.5a1.5 1.5 0 0 1 0-3h1.5v-12.826" fill="#55C1F0" mask="url(#b)"/><path d="M436.627 228.953h3v-3h-3v3zm-12.264 0h3v-3h-3v3z" fill="#2F9148" mask="url(#b)"/><path d="M459.206 212.434h-12.264c-.394 0-.782.16-1.061.439-.28.28-.44.666-.44 1.06v2.71a191.361 191.361 0 0 1 3 7.465v-8.674h9.265v10.519h3v-12.02c0-.394-.16-.78-.44-1.06a1.515 1.515 0 0 0-1.06-.44m-1.5 1.5h1.5-1.5m-12.264 10.724v1.296h.488c-.161-.432-.324-.866-.488-1.296" fill="#55C1F0" mask="url(#b)"/><path d="M445.441 216.644v8.013c.164.43.327.864.488 1.296h2.512v-1.845c-.95-2.516-1.948-5-3-7.464" fill="#51BEF0" mask="url(#b)"/><path d="M460.705 228.953h-3v24.553h1.5a1.5 1.5 0 0 1 1.5 1.499v-26.052m-13.687 0h-1.577v37.539a7.632 7.632 0 0 0 11.402 6.636 190.189 190.189 0 0 0-.377-3.484 4.607 4.607 0 0 1-3.393 1.479 4.609 4.609 0 0 1-3.275-1.356 4.61 4.61 0 0 1-1.357-3.275v-9.987h-1.499a1.5 1.5 0 1 1 0-3h1.5v-20.368a185.349 185.349 0 0 0-1.424-4.184m13.687 26.052a1.5 1.5 0 0 1-1.5 1.5h-1.5v1.095a191.91 191.91 0 0 1 1.876 12.879 7.59 7.59 0 0 0 1.124-3.987v-11.487" fill="#55C1F0" mask="url(#b)"/><path d="M448.442 228.953h-1.423c.49 1.387.965 2.782 1.423 4.184v-4.184m9.263 28.647v8.892a4.605 4.605 0 0 1-1.238 3.152c.136 1.155.262 2.323.377 3.484a7.671 7.671 0 0 0 2.738-2.65 191.913 191.913 0 0 0-1.877-12.878" fill="#51BEF0" mask="url(#b)"/><path d="M457.705 228.953h3v-3h-3v3zm-11.775-3h-.489v3h1.578a191.078 191.078 0 0 0-1.089-3z" fill="#2F9148" mask="url(#b)"/><path d="M448.442 225.953h-2.512c.372.998.733 1.994 1.089 3h1.423v-3" fill="#2D8F48" mask="url(#b)"/><path d="M480.283 212.434H468.02c-.395 0-.78.16-1.06.439-.28.28-.439.666-.439 1.06v12.02h3v-10.52h9.263v10.52h3v-12.02c0-.394-.16-.78-.439-1.06a1.513 1.513 0 0 0-1.06-.44m-1.5 1.5h1.5-1.5m3 15.02h-3v11.218h1.5a1.5 1.5 0 0 1 1.5 1.5v-12.718m-12.265 0h-2.999v37.539a7.632 7.632 0 0 0 15.263 0V241.67a1.5 1.5 0 0 1-1.5 1.5h-1.5v23.32a4.605 4.605 0 0 1-1.357 3.276 4.61 4.61 0 0 1-3.275 1.357 4.614 4.614 0 0 1-3.276-1.357 4.613 4.613 0 0 1-1.356-3.275V243.17h-1.5a1.5 1.5 0 0 1 0-3h1.5v-11.218" fill="#55C1F0" mask="url(#b)"/><path d="M478.783 228.953h3v-3h-3v3zm-12.263 0h2.999v-3h-2.999v3z" fill="#2F9148" mask="url(#b)"/><path d="M501.361 212.434h-12.263c-.395 0-.782.16-1.06.439-.28.28-.44.666-.44 1.06v12.02h3v-10.52h9.263v10.52h3v-12.02c0-.394-.16-.78-.439-1.06a1.513 1.513 0 0 0-1.06-.44m-1.5 1.5h1.5-1.5m3 15.02h-3v20.176h1.5c.811 0 1.473.646 1.5 1.452v-21.628m-12.264 0h-3v37.539a7.63 7.63 0 0 0 7.632 7.63 7.631 7.631 0 0 0 7.631-7.63v-15.815a1.5 1.5 0 0 1-1.5 1.452h-1.5v14.363a4.609 4.609 0 0 1-1.356 3.275 4.61 4.61 0 0 1-3.275 1.357 4.61 4.61 0 0 1-3.276-1.357 4.613 4.613 0 0 1-1.356-3.275v-14.363h-1.5a1.5 1.5 0 1 1 0-3h1.5v-20.176" fill="#55C1F0" mask="url(#b)"/><path d="M499.861 228.953h3v-3h-3v3zm-12.263 0h3v-3h-3v3z" fill="#2F9148" mask="url(#b)"/><path fill="#8CC04D" mask="url(#b)" d="M406.286 237.749h9.263v-3h-9.263z"/><path d="M417.049 234.749h-1.5v3h1.5a1.5 1.5 0 1 0 0-3m-10.763 0h-1.5a1.5 1.5 0 1 0 0 3h1.5v-3" fill="#2F9148" mask="url(#b)"/><path fill="#8CC04D" mask="url(#b)" d="M427.363 244.778h9.264v-3h-9.264z"/><path d="M438.127 241.778h-1.5v3h1.5a1.5 1.5 0 1 0 0-3m-10.764 0h-1.5a1.5 1.5 0 0 0 0 3h1.5v-3" fill="#2F9148" mask="url(#b)"/><path d="M457.705 253.506h-.785c.202.995.397 1.998.584 3h.201v-3m-3.848 0h-5.415v3h6.01c-.19-1.003-.389-2.003-.595-3" fill="#8CC04D" mask="url(#b)"/><path d="M456.92 253.506h-3.062c.206.997.404 1.997.594 3h3.052a182.702 182.702 0 0 0-.584-3" fill="#86BD4D" mask="url(#b)"/><path d="M459.206 253.506h-1.5v3h1.5a1.5 1.5 0 0 0 0-3m-10.764 0h-1.5a1.5 1.5 0 1 0 0 3h1.5v-3" fill="#2F9148" mask="url(#b)"/><path fill="#8CC04D" mask="url(#b)" d="M469.52 243.17h9.264v-3h-9.264z"/><path d="M480.283 240.17h-1.5v3h1.5a1.5 1.5 0 1 0 0-3m-10.764 0h-1.5a1.5 1.5 0 0 0 0 3h1.5v-3" fill="#2F9148" mask="url(#b)"/><path d="M490.598 252.128h9.263v-3h-9.263v3zm12.263-1.547v.096l.001-.048-.001-.048z" fill="#8CC04D" mask="url(#b)"/><path d="M501.361 249.128h-1.5v3h1.5a1.5 1.5 0 0 0 1.5-1.45v-.097a1.502 1.502 0 0 0-1.5-1.453m-10.763 0h-1.5a1.5 1.5 0 0 0 0 3h1.5v-3" fill="#2F9148" mask="url(#b)"/><path d="M246.592 233.35c-19.693 0-36.647 11.72-44.266 28.568h1a1.5 1.5 0 0 1 1.456 1.862 45.656 45.656 0 0 1 9.595-14.087c8.249-8.247 19.63-13.343 32.215-13.344 12.586.001 23.966 5.097 32.215 13.344.282.281.56.567.834.855a1.5 1.5 0 0 1 1.462-1.834h.93c-8.858-9.455-21.46-15.365-35.441-15.365m34.055 18.295c7.158 8.05 11.504 18.643 11.504 30.264 0 1.763-.1 3.502-.294 5.212a1.498 1.498 0 0 1 1.225-.633h1.855a49.17 49.17 0 0 0 .214-4.579 48.362 48.362 0 0 0-10.526-30.194h-3.522a1.49 1.49 0 0 1-.456-.07m-76.053 12.576c-.266.42-.735.698-1.268.698h-2.238a48.489 48.489 0 0 0-3.055 16.99c.003 22.166 14.849 40.862 35.147 46.682a1.501 1.501 0 0 0 .828-2.883c-19.038-5.46-32.978-23.003-32.975-43.799a45.43 45.43 0 0 1 3.56-17.688m87.083 24.293a45.351 45.351 0 0 1-10.141 22.63c.253-.195.57-.31.915-.31h3.15a48.32 48.32 0 0 0 8.962-21.346h-1.48a1.502 1.502 0 0 1-1.406-.974m-10.55 23.11a45.576 45.576 0 0 1-21.948 14.084 1.499 1.499 0 1 0 .827 2.884h-.001c9.106-2.612 17.116-7.815 23.179-14.759h-.733a1.5 1.5 0 0 1-1.323-2.209m-160.24 49.547c-6.064 2.258-10.382 8.097-10.383 14.947a1.5 1.5 0 0 1 1.501-1.5h1.586a12.897 12.897 0 0 1 3.704-7.652 12.899 12.899 0 0 1 9.153-3.791 12.895 12.895 0 0 1 9.152 3.79 12.892 12.892 0 0 1 3.705 7.654h1.586a1.5 1.5 0 0 1 1.5 1.499c-.001-6.85-4.319-12.69-10.382-14.946a8.689 8.689 0 0 1-5.561 2.003 8.696 8.696 0 0 1-5.561-2.003" fill="#55C1F0" mask="url(#b)"/><path d="M139.305 374.617H113.59c-.057.492-.086.992-.086 1.5a1.5 1.5 0 0 1-1.5 1.5h28.886a1.5 1.5 0 0 1-1.5-1.5c0-.508-.03-1.008-.086-1.5" fill="#8CC04D" mask="url(#b)"/><path d="M140.891 374.617h-1.586c.056.492.086.992.086 1.5a1.5 1.5 0 1 0 1.5-1.5m-27.3 0h-1.586a1.5 1.5 0 1 0 1.5 1.5c0-.508.03-1.008.085-1.5" fill="#2F9148" mask="url(#b)"/><path d="M126.448 345.73a8.723 8.723 0 0 0-5.561 15.44 15.941 15.941 0 0 1 5.561-.997c1.956.001 3.83.353 5.561.997a8.703 8.703 0 0 0 3.16-6.719h-3a5.699 5.699 0 0 1-1.675 4.046 5.696 5.696 0 0 1-4.046 1.676 5.693 5.693 0 0 1-4.046-1.676 5.695 5.695 0 0 1-1.676-4.046 5.696 5.696 0 0 1 1.676-4.045 5.697 5.697 0 0 1 4.046-1.676 5.7 5.7 0 0 1 4.046 1.676 5.7 5.7 0 0 1 1.675 4.045h3a8.722 8.722 0 0 0-8.721-8.72" fill="#8CC04D" mask="url(#b)"/><path d="M126.448 360.174c-1.956 0-3.83.353-5.561.997a8.694 8.694 0 0 0 5.561 2.003 8.689 8.689 0 0 0 5.561-2.003 15.918 15.918 0 0 0-5.561-.997" fill="#2F9148" mask="url(#b)"/><path d="M149.413 207.204a1.5 1.5 0 0 0-1.5 1.5v18.013a132.568 132.568 0 0 0 3-2.705v-15.308a1.5 1.5 0 0 0-1.5-1.5m1.5 20.866a129.65 129.65 0 0 1-3 2.595v16.798c0 9.64 7.815 17.455 17.456 17.456h35.72c.38-1.017.792-2.017 1.236-3.001H165.37a14.397 14.397 0 0 1-10.222-4.234 14.398 14.398 0 0 1-4.234-10.221V228.07" fill="#8CC04D" mask="url(#b)"/><path d="M150.913 224.012c-.985.917-1.987 1.82-3 2.705v3.949a132.163 132.163 0 0 0 3-2.596v-4.058" fill="#86BD4D" mask="url(#b)"/><path d="M204.782 263.78l-.188.44c.084-.134.149-.282.188-.44" fill="#8CC04D" mask="url(#b)"/><path d="M203.326 261.918h-1a48.324 48.324 0 0 0-1.238 3h2.238a1.5 1.5 0 0 0 1.268-.698c.062-.147.124-.294.188-.44a1.5 1.5 0 0 0-1.456-1.862" fill="#2F9148" mask="url(#b)"/><path d="M324.874 188.528a1.5 1.5 0 0 0-1.5 1.501v44.23a14.408 14.408 0 0 1-4.234 10.221 14.404 14.404 0 0 1-10.222 4.234h-26.884a48.995 48.995 0 0 1 2.59 3.001h24.294c9.641-.002 17.455-7.816 17.456-17.457V190.03a1.5 1.5 0 0 0-1.5-1.5m-45.234 62.02c.118.518.505.935 1.007 1.095a47.33 47.33 0 0 0-1.007-1.096" fill="#8CC04D" mask="url(#b)"/><path d="M282.034 248.714h-.93a1.5 1.5 0 0 0-1.464 1.834c.342.36.677.725 1.007 1.096.144.046.297.07.456.07h3.521a48.977 48.977 0 0 0-2.59-3" fill="#2F9148" mask="url(#b)"/><path d="M369.31 286.487h-74.373a49.239 49.239 0 0 1-.375 3h74.747a1.5 1.5 0 0 0 0-3m-77.453.634a1.493 1.493 0 0 0-.18 1.392c.067-.461.127-.927.18-1.392" fill="#8CC04D" mask="url(#b)"/><path d="M294.937 286.487h-1.855a1.5 1.5 0 0 0-1.226.634c-.053.465-.113.931-.18 1.392a1.5 1.5 0 0 0 1.406.974h1.48c.155-.991.281-1.99.375-3" fill="#2F9148" mask="url(#b)"/><path d="M341.558 310.832H285.6a49.128 49.128 0 0 1-2.417 3h58.375c3.997 0 7.601 1.615 10.222 4.234a14.407 14.407 0 0 1 4.234 10.222v14.76a1.5 1.5 0 1 0 3 0v-14.76c0-9.642-7.815-17.456-17.456-17.456m-60.023.311a1.51 1.51 0 0 0-.408.48c.137-.159.273-.319.408-.48" fill="#8CC04D" mask="url(#b)"/><path d="M285.6 310.832h-3.15c-.345 0-.662.116-.915.311-.135.161-.27.321-.408.48a1.5 1.5 0 0 0 1.323 2.209h.733a49.128 49.128 0 0 0 2.417-3" fill="#2F9148" mask="url(#b)"/><path d="M245.092 310.265v42.674a14.408 14.408 0 0 1-4.234 10.222 14.408 14.408 0 0 1-10.222 4.234h-79.814a1.5 1.5 0 0 0 0 3h79.814c9.641 0 17.455-7.815 17.456-17.456v-42.674a1.5 1.5 0 0 0-3 0z" fill="#8CC04D" mask="url(#b)"/></g></svg>