<svg width="586" height="483" viewBox="0 0 586 483" xmlns="http://www.w3.org/2000/svg" xmlns:xlink="http://www.w3.org/1999/xlink"><defs><path id="a" d="M.643.001H384.74v384.097H.643V0z"/><path id="c" d="M0 483.999h585.966V1H0z"/></defs><g transform="translate(0 -1)" fill="none" fill-rule="evenodd"><path d="M470.283 111.217h-1.5c0 22.486-9.11 42.83-23.845 57.566-14.737 14.735-35.08 23.844-57.566 23.845-22.485 0-42.828-9.11-57.565-23.845-14.735-14.737-23.844-35.08-23.846-57.566.002-22.485 9.111-42.829 23.846-57.566 14.737-14.735 35.08-23.844 57.565-23.845 22.486.001 42.83 9.11 57.566 23.845 14.735 14.737 23.844 35.081 23.845 57.566h3c0-46.619-37.79-84.41-84.41-84.41-46.62.001-84.41 37.791-84.41 84.41 0 46.62 37.79 84.41 84.41 84.411 46.62 0 84.41-37.792 84.41-84.41h-1.5z" fill="#F4FBFF"/><g transform="translate(70 .999)"><mask id="b" fill="#fff"><use xlink:href="#a"/></mask><path d="M268.235 365.4c-23.137 10.097-48.682 15.697-75.544 15.698-52.209-.002-99.462-21.158-133.678-55.372C24.8 291.51 3.643 244.258 3.643 192.049c0-52.21 21.157-99.461 55.37-133.678C93.23 24.159 140.481 3 192.691 3c52.21 0 99.461 21.158 133.677 55.37 34.214 34.217 55.37 81.469 55.371 133.678 0 8.332-.539 16.538-1.584 24.583l2.976.387a193.912 193.912 0 0 0 1.608-24.97C384.74 85.983 298.757.002 192.691 0 86.625 0 .643 85.983.643 192.049s85.982 192.047 192.048 192.049c27.28 0 53.24-5.69 76.744-15.948l-1.199-2.75" fill="#F4FBFF" mask="url(#b)"/></g><path d="M520.06 391.717h-1.5c-.002 24.66-9.992 46.97-26.15 63.132-16.163 16.16-38.474 26.15-63.133 26.15-24.659 0-46.97-9.99-63.132-26.15-16.159-16.161-26.15-38.472-26.15-63.132.001-24.659 9.991-46.97 26.15-63.131 16.162-16.16 38.473-26.15 63.132-26.15 24.66 0 46.97 9.99 63.132 26.15 16.16 16.161 26.15 38.471 26.15 63.131h3c0-50.966-41.315-92.28-92.282-92.281-50.967 0-92.28 41.315-92.282 92.281.001 50.968 41.315 92.281 92.282 92.281s92.281-41.313 92.282-92.28h-1.5" fill="#F4FBFF"/><path d="M363.995 195.308h-3.4v3h3.4a1.5 1.5 0 0 0 0-3m-6.4 0H327.22a9.763 9.763 0 0 1 0 3h30.376v-3m-33.428 0h-13.173a6.794 6.794 0 0 0 0 3h13.173a6.78 6.78 0 0 0 .167-1.5h3-3c0-.516-.058-1.018-.167-1.5m-16.225 0H295.16l-.044.001h12.827m0 3h-12.83 12.83m56.052 6.259h-3.4v3h3.4a1.5 1.5 0 0 0 0-3m-6.4 0h-34.103a9.717 9.717 0 0 1-5.91 1.994 9.717 9.717 0 0 1-5.91-1.994H295.16a1.5 1.5 0 1 0 0 3h62.436v-3m-83.269-21.453c-7.055 0-12.864 5.336-13.611 12.194h27.223c-.747-6.857-6.556-12.194-13.612-12.194m13.612 15.193h-27.223c.747 6.856 6.556 12.193 13.61 12.193 7.057 0 12.866-5.337 13.613-12.193m76.056 22.45h-3.4v3h3.4a1.5 1.5 0 0 0 0-3m-6.4 0H295.16a1.5 1.5 0 0 0-1.42 1.01c.1-.002.2-.004.3-.004a9.71 9.71 0 0 1 5.91 1.994h57.646v-3m-56.97 9.26h-5.467a1.5 1.5 0 1 0 0 3h5.467a6.794 6.794 0 0 0 0-3m63.369 9.259h-3.4v3h3.4a1.5 1.5 0 0 0 0-3m-6.4 0H299.95a9.718 9.718 0 0 1-6.208 1.989 1.501 1.501 0 0 0 1.419 1.01h62.436v-3m-83.27-21.452c-7.562 0-13.692 6.131-13.692 13.693 0 7.562 6.13 13.693 13.692 13.693 5.323 0 9.936-3.036 12.202-7.47a9.716 9.716 0 0 1-2.242-6.223c0-2.365.842-4.533 2.242-6.22a13.691 13.691 0 0 0-12.202-7.473m13.457 11.145a6.711 6.711 0 0 0-.497 2.548c0 .904.176 1.763.497 2.548a13.8 13.8 0 0 0 0-5.096m76.211 26.498h-4.031a17.372 17.372 0 0 1-1.14 3h5.17a1.5 1.5 0 1 0 0-3m-7.168 0H295.16a1.5 1.5 0 1 0 0 3h25.529a9.713 9.713 0 0 1 5.146-1.466c1.889 0 3.652.537 5.146 1.466h24.415a14.358 14.358 0 0 0 1.43-3m7.169 9.26h-10.333a17.397 17.397 0 0 1-6.248 3h16.58a1.5 1.5 0 0 0 0-3m-16.972 0h-11.645c.037.174.069.35.097.527h7.666c1.346 0 2.647-.184 3.882-.527m-14.743 0H319.39a6.772 6.772 0 0 0-.24 3h13.368a6.772 6.772 0 0 0-.24-3m-15.986 0H295.16a1.5 1.5 0 1 0 0 3h20.97a9.783 9.783 0 0 1 .163-3m47.702 9.259h-31.617a9.723 9.723 0 0 1-6.543 2.521 9.723 9.723 0 0 1-6.543-2.52H295.16a1.5 1.5 0 1 0 0 3h68.835a1.5 1.5 0 0 0 0-3m-89.668-21.453c-7.562 0-13.692 6.13-13.692 13.693 0 7.562 6.13 13.693 13.692 13.693 7.563 0 13.693-6.131 13.693-13.693 0-7.562-6.13-13.693-13.693-13.693m89.668 37.642H295.16a1.5 1.5 0 1 0 0 3h68.835a1.5 1.5 0 1 0 0-3m0 9.259H295.16a1.5 1.5 0 1 0 0 3h68.835a1.5 1.5 0 0 0 0-3m0 9.26H295.16a1.5 1.5 0 1 0 0 3h68.835a1.5 1.5 0 0 0 0-3m-89.668-21.453c-7.562 0-13.692 6.13-13.692 13.693 0 7.562 6.13 13.693 13.692 13.693 7.563 0 13.693-6.13 13.693-13.693s-6.13-13.693-13.693-13.693m89.668 37.643H295.16a1.5 1.5 0 1 0 0 3h67.473a94.253 94.253 0 0 1 2.484-2.495 1.496 1.496 0 0 0-1.122-.505" fill="#E4F6FE"/><path d="M365.116 325.39a91.309 91.309 0 0 0-2.482 2.495h1.36a1.5 1.5 0 0 0 1.122-2.496" fill="#DAF2FE"/><path d="M363.995 334.144h-2.96a89.716 89.716 0 0 0-2.424 3h5.384a1.5 1.5 0 0 0 0-3m-6.842 0H295.16a1.5 1.5 0 1 0 0 3h59.694a91.57 91.57 0 0 1 2.299-3" fill="#E4F6FE"/><path d="M361.036 334.144h-3.883a91.57 91.57 0 0 0-2.3 3h3.758a89.716 89.716 0 0 1 2.425-3" fill="#DAF2FE"/><path d="M274.327 321.952c-7.562 0-13.692 6.13-13.692 13.692 0 7.563 6.13 13.694 13.692 13.694 7.563 0 13.693-6.131 13.693-13.694 0-7.562-6.13-13.692-13.693-13.692m80.101-180.321h-42.595a81.513 81.513 0 0 0 17.974 27.152 81.07 81.07 0 0 0 3.466 3.27h21.155c1.096 0 2.158-.15 3.167-.432v-29.557a11.75 11.75 0 0 0-3.167-.433m-45.82 0h-36.126c-6.517 0-11.848 5.331-11.848 11.847v6.727c0 6.516 5.331 11.848 11.848 11.848h56.375a84.52 84.52 0 0 1-20.249-30.422m51.987 1.743v26.936c3.4-2.089 5.681-5.844 5.681-10.105v-6.727c0-4.26-2.281-8.015-5.681-10.104" fill="#E4F6FE"/><path d="M311.833 141.631h-3.225a84.52 84.52 0 0 0 20.249 30.422h4.416a81.07 81.07 0 0 1-3.466-3.27 81.513 81.513 0 0 1-17.974-27.152" fill="#DAF2FE"/><path d="M584.465 186.422H454.627c.034 1.002.06 1.994.078 3h129.76v-3m-132.84 0h-25.882a83.664 83.664 0 0 1-6.545 3h32.507a186.46 186.46 0 0 0-.08-3m-33.02 0h-21.35c-4.723.003-8.884 2.477-11.258 6.194a78.7 78.7 0 0 0 3.823-.024l.127-.13c1.883-1.88 4.463-3.04 7.307-3.04h12.817a80.813 80.813 0 0 0 8.533-3m-34.02 9.16a13.313 13.313 0 0 0-.677 4.187v30.248h3V199.77c0-1.47.31-2.872.871-4.142l-.406.001c-.933 0-1.863-.016-2.789-.046m2.324 37.435h-3v78.323a91.073 91.073 0 0 1 3-1.625v-76.698m0 80.092a88.22 88.22 0 0 0-3 1.697v2.31l3 .01v-4.017m-3 7.007v13.622c.005 7.351 5.996 13.341 13.347 13.347h17.461v-2.999h-17.46c-2.845 0-5.425-1.162-7.308-3.042a10.307 10.307 0 0 1-3.04-7.306v-13.613l-3-.009m200.558 23.97h-76.134a90.882 90.882 0 0 1 1.736 3h74.398v-3m-79.66 0h-87.09v3h88.905a89.108 89.108 0 0 0-1.815-3" fill="#E4F6FE"/><path d="M425.744 186.422h-7.14a80.813 80.813 0 0 1-8.532 3h9.127a83.833 83.833 0 0 0 6.545-3m-35.923 6.17a83.009 83.009 0 0 1-3.823.024 13.322 13.322 0 0 0-1.414 2.966c.926.03 1.856.046 2.789.046h.405a10.438 10.438 0 0 1 2.043-3.036m64.806-6.17h-3.001c.034 1 .061 1.997.079 3h3.001a198.815 198.815 0 0 0-.079-3m-67.72 123.294a93.13 93.13 0 0 0-3 1.624v3.466a88.196 88.196 0 0 1 3-1.696v-3.394m121.425 34.37h-3.526a90.142 90.142 0 0 1 1.814 3h3.447a92.725 92.725 0 0 0-1.735-3" fill="#DAF2FE"/><path d="M584.465 140.131H466.7a82.228 82.228 0 0 1-1.159 3h118.924v-3m-120.966 0h-16.143c.285.996.562 1.997.831 3h14.103c.423-.99.826-1.99 1.21-3m-19.266 0h-46.98c-7.35.006-13.342 5.997-13.347 13.347v6.728c.005 7.35 5.996 13.341 13.347 13.347h42.484a80.704 80.704 0 0 0 3.374-3h-45.858a10.316 10.316 0 0 1-7.307-3.04 10.307 10.307 0 0 1-3.04-7.307v-6.728c0-2.844 1.16-5.424 3.04-7.306 1.883-1.88 4.463-3.04 7.307-3.04h47.826a198.24 198.24 0 0 0-.846-3m140.231 30.421h-131.03c.116.992.226 2.004.326 3h130.704v-3m-134.05 0h-3.006a84.152 84.152 0 0 1-3.12 3h6.457a197.845 197.845 0 0 0-.33-3" fill="#E4F6FE"/><path d="M466.7 140.131h-3.2a81.635 81.635 0 0 1-1.21 3h3.252c.404-.99.792-1.992 1.159-3m-19.292 30.422h-4.296a81.998 81.998 0 0 1-3.374 3h4.55a84.916 84.916 0 0 0 3.12-3m-.053-30.422h-3.122c.29.996.572 1.997.846 3h3.108c-.27-1.003-.547-2.004-.832-3m6.08 30.422h-3.021c.118.998.229 1.998.331 3h3.016c-.101-.996-.211-2.008-.326-3" fill="#DAF2FE"/><path d="M363.995 186.049h-3.4v2.073a79.84 79.84 0 0 0 2.828.927h.572a1.5 1.5 0 0 0 0-3m-6.4 0h-2.338c.773.332 1.554.653 2.339.962v-.962m-9.315 0H295.16a1.5 1.5 0 1 0 0 3h16.512a9.71 9.71 0 0 1 5.91-1.994 9.71 9.71 0 0 1 5.91 1.994h31.154a84.228 84.228 0 0 1-6.365-3" fill="#E4F6FE"/><path d="M355.257 186.049h-6.977a84.228 84.228 0 0 0 6.365 3h2.95v-2.038a82.47 82.47 0 0 1-2.338-.962m5.338 2.073v.927h2.828a79.84 79.84 0 0 1-2.828-.927" fill="#DAF2FE"/><path d="M363.995 343.404h-9.811a88.433 88.433 0 0 0-1.851 3h11.662a1.5 1.5 0 0 0 0-3m-13.357 0H295.16a1.5 1.5 0 1 0 0 3h53.708a93.623 93.623 0 0 1 1.77-3" fill="#E4F6FE"/><path d="M354.184 343.404h-3.546a91.794 91.794 0 0 0-1.77 3h3.464a90.095 90.095 0 0 1 1.852-3" fill="#DAF2FE"/><path d="M584.465 102.787H471.367c.1.996.18 1.994.244 3h112.854a1.5 1.5 0 0 0 0-3m-116.113 0h-36.104c.53.993 1.054 1.996 1.567 3h34.79a82.303 82.303 0 0 0-.253-3m-39.51 0h-68.247v3h69.844a182.888 182.888 0 0 0-1.598-3m-71.246 0h-51.202a82.303 82.303 0 0 0-.253 3h51.455v-3m-54.217 0h-57.7c-5.626 0-10.824 2.307-14.614 6.03-3.79 3.723-6.195 8.896-6.195 14.618v71.874h3v-71.874c.001-4.873 2.04-9.274 5.297-12.477 3.26-3.201 7.715-5.172 12.512-5.171h57.456c.063-1.006.145-2.004.244-3" fill="#8CC04D"/><path d="M471.367 102.787h-3.015c.102.994.187 1.996.253 3h3.006a84.607 84.607 0 0 0-.244-3m-164.974 0h-3.016c-.098.996-.18 1.994-.243 3h3.006c.066-1.004.151-2.006.253-3m125.856 0h-3.407c.54.993 1.074 1.996 1.598 3h3.375a181.381 181.381 0 0 0-1.566-3" fill="#86BD4D"/><path d="M227.87 198.308h-3V316.63l3 .01V198.31m-3 121.32v54.26h3v-54.25l-3-.01m1.754 57.26h-.509a1.527 1.527 0 0 0 .51 0" fill="#8CC04D"/><path d="M584.465 373.888h-64.628c.195.994.373 1.994.536 3h64.092a1.5 1.5 0 1 0 0-3m-67.687 0h-99.063v3h99.618a87.122 87.122 0 0 0-.555-3m-102.063 0h-72.94a89.595 89.595 0 0 0-.555 3h73.495v-3m-75.999 0h-11.224a191.416 191.416 0 0 1-9.082 3h19.77a89.49 89.49 0 0 1 .536-3m-20.753 0H227.87v1.521a1.5 1.5 0 0 1-1.245 1.48h80.322c3.716-.893 7.39-1.894 11.017-3" fill="#55C1F0"/><path d="M327.492 373.888h-9.53a188.097 188.097 0 0 1-11.016 3h11.464a191.04 191.04 0 0 0 9.082-3m192.345 0h-3.059c.202.994.387 1.994.555 3h3.04a92.11 92.11 0 0 0-.536-3m-178.062 0h-3.059a89.49 89.49 0 0 0-.536 3h3.04c.17-1.006.353-2.006.555-3" fill="#51BEF0"/><path d="M227.87 373.888h-1.5a1.5 1.5 0 0 1 1.5 1.5v-1.5m0 1.5a1.5 1.5 0 0 1-1.5 1.5h.254a1.5 1.5 0 0 0 1.245-1.479v-.02" fill="#2F9148"/><path d="M584.465 120.905H471.233a84.47 84.47 0 0 1-.397 3h113.63a1.5 1.5 0 0 0 0-3m-116.253 0h-27.485c.403.995.8 1.997 1.187 3H467.8a82.26 82.26 0 0 0 .413-3m-30.727 0h-76.89v3h78.1a182.314 182.314 0 0 0-1.21-3m-79.89 0h-51.064a84.51 84.51 0 0 0 .412 3h50.651v-3m-54.083 0h-60.15c-.396 0-.782.16-1.062.439-.279.28-.439.666-.439 1.06v72.905h3v-71.404h59.048a84.47 84.47 0 0 1-.397-3" fill="#55C1F0"/><path d="M471.233 120.905h-3.02a82.257 82.257 0 0 1-.412 3h3.035c.15-.997.282-1.992.397-3m-164.7 0h-3.02a84.47 84.47 0 0 0 .396 3h3.035a82.257 82.257 0 0 1-.412-3m134.196 0h-3.241c.411.995.814 1.996 1.209 3h3.219a185.043 185.043 0 0 0-1.187-3" fill="#51BEF0"/><path d="M244.861 198.308h-3v118.373l3 .01V198.308m-3 121.373v40.267a1.5 1.5 0 1 0 1.5-1.5h1.5V319.69l-3-.009" fill="#55C1F0"/><path d="M584.465 358.447H515.38c.384.995.75 1.99 1.1 3h67.986a1.5 1.5 0 1 0 0-3m-72.31 0h-94.44v3h95.582a86.557 86.557 0 0 0-1.143-3m-97.439 0H346.4a88.627 88.627 0 0 0-1.142 3h69.458v-3m-71.54 0H244.86v1.5a1.5 1.5 0 0 1-1.5 1.5h98.713c.35-1.01.716-2.005 1.1-3" fill="#8CC04D"/><path d="M515.38 358.447h-3.225c.398.993.78 1.991 1.142 3h3.182a90.933 90.933 0 0 0-1.1-3m-168.98 0h-3.225a94.16 94.16 0 0 0-1.1 3h3.183a88.627 88.627 0 0 1 1.142-3" fill="#86BD4D"/><path d="M244.861 358.447h-1.5a1.5 1.5 0 1 0 1.501 1.5v-1.5" fill="#2F9148"/><path d="M224.87 373.888h-17.452a187.56 187.56 0 0 0 11.018 3h7.68a1.5 1.5 0 0 1-1.246-1.479v-1.52m-26.98 0H172.3c-.967 0-1.872.31-2.582.882-.706.564-1.233 1.461-1.231 2.492v4.312c0 .508.143.961.339 1.361.375.75.945 1.376 1.677 2.015 1.284 1.104 3.109 2.215 5.463 3.315 7.047 3.28 18.854 6.38 33.634 6.385h127.44a95.29 95.29 0 0 1-.045-2.934v-.066H209.588c-11.657 0-21.403-2.006-28.17-4.406-3.381-1.198-6.02-2.5-7.736-3.65-.857-.572-1.481-1.11-1.833-1.517a2.3 2.3 0 0 1-.331-.465l-.031-.076v-4.274c.002-.008-.01-.047.12-.162.125-.104.374-.213.685-.213h34.679a190.244 190.244 0 0 1-9.081-3m202.486 17.763h-60.381v.066c0 .982.016 1.961.047 2.934h60.334a1.5 1.5 0 1 1 0-3" fill="#8CC04D"/><path d="M207.418 373.888h-9.529a190.282 190.282 0 0 0 9.082 3h11.464a187.74 187.74 0 0 1-11.017-3m132.577 17.764h-3v.066c0 .983.016 1.958.046 2.934h3a92.27 92.27 0 0 1-.046-2.934v-.066" fill="#86BD4D"/><path d="M226.37 373.888h-1.5v1.521a1.5 1.5 0 0 0 1.246 1.48h.254a1.5 1.5 0 1 1 0-3" fill="#4D9117"/><path d="M226.37 373.888a1.5 1.5 0 1 0-.002 2.999 1.5 1.5 0 0 0 .002-2.999" fill="#1A6D16"/><path d="M584.465 391.652h-62.907v.066c0 .983-.015 1.958-.046 2.934h62.953a1.5 1.5 0 1 0 0-3m-65.906 0H417.715v3h100.796c.032-.974.048-1.953.048-2.934h3-3v-.066m-103.844 0h-14.339a1.5 1.5 0 0 1 0 3h14.34v-3" fill="#55C1F0"/><path d="M521.559 391.652h-3v.066h3v-.066m0 .066h-3c0 .98-.016 1.96-.047 2.934h3c.032-.976.047-1.951.047-2.934" fill="#51BEF0"/><path d="M400.376 391.652a1.5 1.5 0 1 0-.001 2.998 1.5 1.5 0 0 0 .001-2.998" fill="#2F9148"/><path d="M155.334 130.66a8.683 8.683 0 0 1-5.56 2.002 8.688 8.688 0 0 1-5.563-2.003c-6.062 2.257-10.38 8.097-10.382 14.946a1.5 1.5 0 0 1 1.501-1.499h1.587a12.905 12.905 0 0 1 3.703-7.653 12.899 12.899 0 0 1 9.154-3.79 12.887 12.887 0 0 1 8.969 3.612 16.062 16.062 0 0 1 1.98-2.258 15.933 15.933 0 0 0-5.389-3.358m7.368 5.615l-.183.18a13.07 13.07 0 0 0-1.797 2.246 12.863 12.863 0 0 1 1.994 6.905 1.5 1.5 0 1 0 1.5-1.499h1.43a15.86 15.86 0 0 0-2.944-7.832" fill="#55C1F0"/><path d="M155.799 144.106h-18.883c-.056.492-.086.992-.086 1.5a1.5 1.5 0 0 1-1.5 1.5h21.899a1.5 1.5 0 1 0-1.5-1.5c0-.506.024-1.006.07-1.5" fill="#8CC04D"/><path d="M136.916 144.106h-1.586a1.5 1.5 0 1 0 1.5 1.5c0-.508.03-1.008.086-1.5" fill="#2F9148"/><path d="M149.773 115.22a8.723 8.723 0 0 0-5.562 15.44 15.947 15.947 0 0 1 5.562-.998c1.956.001 3.83.353 5.561.997a8.703 8.703 0 0 0 3.16-6.718h-2.999a5.698 5.698 0 0 1-1.676 4.046 5.698 5.698 0 0 1-4.046 1.675 5.696 5.696 0 0 1-4.046-1.675 5.699 5.699 0 0 1-1.676-4.046 5.697 5.697 0 0 1 1.676-4.046 5.697 5.697 0 0 1 4.046-1.676 5.699 5.699 0 0 1 4.046 1.676 5.696 5.696 0 0 1 1.675 4.046h3.001a8.722 8.722 0 0 0-8.722-8.722" fill="#8CC04D"/><path d="M149.773 129.663c-1.957 0-3.83.352-5.562.997a8.688 8.688 0 0 0 5.562 2.003 8.683 8.683 0 0 0 5.561-2.003 15.918 15.918 0 0 0-5.56-.997" fill="#2F9148"/><path d="M166.11 130.66a15.933 15.933 0 0 0-5.387 3.357 16.039 16.039 0 0 1 1.979 2.257 12.895 12.895 0 0 1 8.97-3.612 12.899 12.899 0 0 1 9.153 3.791 12.905 12.905 0 0 1 3.704 7.653h1.587a1.5 1.5 0 0 1 1.499 1.448c-.022-6.828-4.334-12.644-10.382-14.895a8.683 8.683 0 0 1-5.561 2.003 8.685 8.685 0 0 1-5.561-2.003m-7.368 5.616a15.853 15.853 0 0 0-2.944 7.831h1.43a1.5 1.5 0 0 1 1.5 1.5c0-2.543.73-4.908 1.994-6.906a13.075 13.075 0 0 0-1.98-2.425" fill="#55C1F0"/><path d="M160.723 134.017a16.062 16.062 0 0 0-1.98 2.258l.182.178c.679.68 1.283 1.433 1.798 2.247a13.07 13.07 0 0 1 1.797-2.247c.06-.06.12-.119.182-.178a15.991 15.991 0 0 0-1.98-2.258" fill="#096FD5"/><path d="M157.228 144.106h-1.43c-.046.494-.069.994-.07 1.5a1.5 1.5 0 1 0 1.5-1.5" fill="#1A6D16"/><path d="M184.53 144.106h-18.884c.046.494.07.994.07 1.5a1.5 1.5 0 0 1-1.499 1.5h21.898a1.5 1.5 0 0 1-1.5-1.5c0-.508-.029-1.008-.086-1.5" fill="#8CC04D"/><path d="M165.647 144.106h-1.43a1.5 1.5 0 1 0 1.5 1.5c0-.506-.025-1.006-.07-1.5" fill="#106E44"/><path d="M187.615 145.554v.001" fill="#8CC04D"/><path d="M186.115 144.106h-1.585c.055.492.085.992.085 1.5a1.5 1.5 0 1 0 3 0v-.052a1.5 1.5 0 0 0-1.5-1.448" fill="#2F9148"/><path d="M171.672 115.22a8.722 8.722 0 0 0-5.561 15.44 15.941 15.941 0 0 1 5.56-.998c1.957.001 3.83.353 5.562.997a8.703 8.703 0 0 0 3.16-6.718h-3a5.703 5.703 0 0 1-1.675 4.046 5.696 5.696 0 0 1-4.046 1.675 5.698 5.698 0 0 1-4.046-1.675 5.694 5.694 0 0 1-1.675-4.046c0-1.585.637-3.006 1.675-4.046a5.699 5.699 0 0 1 4.046-1.676 5.697 5.697 0 0 1 4.046 1.676 5.701 5.701 0 0 1 1.676 4.046h2.999a8.722 8.722 0 0 0-8.721-8.722" fill="#8CC04D"/><path d="M171.672 129.663c-1.956 0-3.83.353-5.561.997a8.683 8.683 0 0 0 5.56 2.003 8.683 8.683 0 0 0 5.562-2.003 15.918 15.918 0 0 0-5.561-.997" fill="#2F9148"/><path d="M323.491 189.049h-11.82a9.748 9.748 0 0 0-3.728 6.26h3.052a6.735 6.735 0 0 1 1.811-3.276 6.727 6.727 0 0 1 4.775-1.978 6.726 6.726 0 0 1 4.775 1.978 6.736 6.736 0 0 1 1.812 3.276h3.052a9.754 9.754 0 0 0-3.729-6.26m3.73 9.26h-3.053a6.746 6.746 0 0 1-1.812 3.275 6.726 6.726 0 0 1-4.775 1.978 6.727 6.727 0 0 1-4.775-1.978 6.736 6.736 0 0 1-1.81-3.275h-3.053a9.751 9.751 0 0 0 3.728 6.259h11.82a9.756 9.756 0 0 0 3.73-6.26" fill="#55C1F0"/><path d="M327.22 195.308h-3.052c.109.482.167.984.167 1.5h3a9.9 9.9 0 0 0-.115-1.5m-16.225 0h-3.052v.001h1.386a1.499 1.499 0 1 1 0 3h-1.386 3.052a6.78 6.78 0 0 1 0-3m16.34 1.5h-3a6.78 6.78 0 0 1-.167 1.5h3.052a9.89 9.89 0 0 0 .115-1.5m-3.844 7.759h-11.82a9.717 9.717 0 0 0 5.91 1.994 9.717 9.717 0 0 0 5.91-1.994m-5.909-17.513a9.71 9.71 0 0 0-5.91 1.994h11.82a9.71 9.71 0 0 0-5.91-1.994" fill="#44B3EE"/><path d="M161.219 156.06a1.5 1.5 0 0 0-1.5 1.5v23.292c0 9.642 7.815 17.456 17.457 17.457h47.694v-3h-47.695a14.407 14.407 0 0 1-10.223-4.234 14.407 14.407 0 0 1-4.233-10.222V157.56a1.5 1.5 0 0 0-1.5-1.5zm66.65 42.249h13.993v-3h-13.993v3zm16.993-3v3h15.854a13.767 13.767 0 0 1 0-3H244.86zm43.076 0a13.766 13.766 0 0 1 0 3h7.175a1.5 1.5 0 0 1 .002-3h-7.177z" fill="#8CC04D"/><path d="M295.116 195.31a1.5 1.5 0 0 0-.002 2.998h12.829a9.877 9.877 0 0 1 0-2.999h-12.827m-34.401 0a13.753 13.753 0 0 0 0 2.999h27.223a13.734 13.734 0 0 0 0-3h-27.223" fill="#70B24D"/><mask id="d" fill="#fff"><use xlink:href="#c"/></mask><path fill="#2A6D07" mask="url(#d)" d="M224.87 198.308h3v-3h-3z"/><path fill="#106E44" mask="url(#d)" d="M241.861 198.308h3v-3h-3z"/><path d="M307.943 195.31a9.763 9.763 0 0 0 0 2.998h1.385a1.5 1.5 0 1 0 0-2.999h-1.385" fill="#268748" mask="url(#d)"/><path d="M353.535 55.822c-6.063 2.257-10.382 8.096-10.383 14.946a1.5 1.5 0 0 1 1.5-1.5h1.586a12.898 12.898 0 0 1 3.705-7.652 12.895 12.895 0 0 1 9.153-3.791 12.894 12.894 0 0 1 9.15 3.79 12.893 12.893 0 0 1 3.707 7.654h1.586a1.5 1.5 0 0 1 1.5 1.499c-.001-6.85-4.32-12.69-10.382-14.946a8.685 8.685 0 0 1-5.561 2.003 8.694 8.694 0 0 1-5.561-2.003" fill="#55C1F0" mask="url(#d)"/><path d="M371.953 69.268h-25.715c-.056.492-.085.992-.086 1.5a1.5 1.5 0 0 1-1.5 1.5h28.887a1.5 1.5 0 0 1-1.5-1.5c0-.508-.03-1.008-.086-1.5" fill="#8CC04D" mask="url(#d)"/><path d="M373.54 69.268h-1.587c.056.492.086.992.086 1.5a1.5 1.5 0 1 0 1.5-1.5m-27.3 0h-1.587a1.5 1.5 0 1 0 1.5 1.5c.001-.508.03-1.008.086-1.5" fill="#2F9148" mask="url(#d)"/><path d="M359.096 40.382a8.723 8.723 0 0 0-5.561 15.44 15.941 15.941 0 0 1 5.56-.997c1.957 0 3.83.353 5.562.997a8.703 8.703 0 0 0 3.16-6.718h-3a5.696 5.696 0 0 1-1.675 4.045 5.699 5.699 0 0 1-4.046 1.676 5.7 5.7 0 0 1-4.046-1.675 5.7 5.7 0 0 1-1.676-4.046 5.695 5.695 0 0 1 1.676-4.046 5.693 5.693 0 0 1 4.046-1.676c1.585 0 3.005.638 4.046 1.676a5.694 5.694 0 0 1 1.675 4.046h3a8.722 8.722 0 0 0-8.721-8.722" fill="#8CC04D" mask="url(#d)"/><path d="M359.096 54.825c-1.956 0-3.83.353-5.561.997a8.694 8.694 0 0 0 5.56 2.003 8.683 8.683 0 0 0 5.562-2.003 15.918 15.918 0 0 0-5.561-.997" fill="#2F9148" mask="url(#d)"/><path d="M330.98 258.467h-10.29a9.764 9.764 0 0 0-4.396 6.26h3.098a6.75 6.75 0 0 1 1.669-2.749 6.727 6.727 0 0 1 4.775-1.978 6.73 6.73 0 0 1 4.775 1.978 6.75 6.75 0 0 1 1.669 2.75h3.098a9.764 9.764 0 0 0-4.396-6.26m1.965 9.258h-.427a6.732 6.732 0 0 1-1.91 3.803 6.73 6.73 0 0 1-4.774 1.978 6.727 6.727 0 0 1-4.775-1.978 6.732 6.732 0 0 1-1.91-3.803h-3.02a9.728 9.728 0 0 0 3.162 6.26h13.086a9.734 9.734 0 0 0 3.095-5.732h-1.384c-.458 0-.868-.205-1.143-.528" fill="#55C1F0" mask="url(#d)"/><path d="M325.835 257a9.702 9.702 0 0 0-5.146 1.468h10.292a9.704 9.704 0 0 0-5.146-1.467m9.542 7.726h-3.098a6.74 6.74 0 0 1 .309 2.027 1.5 1.5 0 0 1 1.5-1.5h1.385a9.22 9.22 0 0 0-.096-.527m-15.986 0h-3.098a9.81 9.81 0 0 0-.163 3h3.02a6.772 6.772 0 0 1 .24-3m13.198 2.027c0 .33-.024.655-.07.973h.428a1.497 1.497 0 0 1-.358-.973m-.21 7.232h-13.086a9.723 9.723 0 0 0 6.543 2.521 9.723 9.723 0 0 0 6.543-2.52" fill="#4CBAEF" mask="url(#d)"/><path d="M359.096 77.23a1.5 1.5 0 0 0-1.5 1.5v24.057h3V78.73a1.5 1.5 0 0 0-1.5-1.5zm-1.5 43.675h3v-15.118h-3v15.118zm3 3h-3v18.159c1.067.298 2.074.743 3 1.31v-19.47zm0 46.405a11.815 11.815 0 0 1-3 1.31v14.429h3v-15.74zm-3 19.915v5.083h3v-4.016a82.65 82.65 0 0 1-3-1.067zm0 14.343h3v-6.26h-3v6.26zm0 16.19h3v-13.19h-3v13.19zm0 9.26h3v-6.26h-3v6.26z" fill="#8CC04D" mask="url(#d)"/><path d="M360.595 189.049h-3v1.177c.993.374 1.99.729 3 1.066v-2.243" fill="#86BD4D" mask="url(#d)"/><path fill="#7DB94D" mask="url(#d)" d="M357.595 198.308h3v-3h-3zm0 9.26h3v-3h-3zm0 16.19h3v-3h-3zm.001-81.694v29.557a11.815 11.815 0 0 0 3-1.311v-26.935a11.815 11.815 0 0 0-3-1.311m2.999 43.985h-3v.962c.991.39 1.99.76 3 1.111v-2.073"/><path d="M357.596 187.011v2.038h3v-.927a79.03 79.03 0 0 1-3-1.111" fill="#78B64D" mask="url(#d)"/><path fill="#4D9117" mask="url(#d)" d="M357.595 105.787h3v-3h-3z"/><path fill="#2F9148" mask="url(#d)" d="M357.595 123.905h3v-3h-3z"/><path d="M357.595 239.277h3v-6.26h-3v6.26zm3 3h-3v8.521c0 1.635-.271 3.205-.77 4.669h3.138c.412-1.486.632-3.052.632-4.669v-8.521zm-1.771 16.19h-3.428a14.583 14.583 0 0 1-2.035 2.553 14.451 14.451 0 0 1-6.34 3.707h6.641a17.536 17.536 0 0 0 5.162-6.26zm-11.411 9.26H335.54c-.018.177-.04.353-.067.527h7.666c1.475 0 2.906-.183 4.274-.527z" fill="#8CC04D" mask="url(#d)"/><path fill="#7DB94D" mask="url(#d)" d="M357.595 242.277h3v-3h-3zm2.368 13.19h-3.138a14.358 14.358 0 0 1-1.43 3h3.43c.466-.954.85-1.957 1.138-3m-6.301 9.26h-6.64a14.483 14.483 0 0 1-3.882.527h-7.666a9.89 9.89 0 0 1 .066 2.473h11.874a17.397 17.397 0 0 0 6.248-3"/><path d="M335.473 265.254h-1.385a1.5 1.5 0 0 0-1.5 1.5h3a9.9 9.9 0 0 0-.115-1.5" fill="#2A8C48" mask="url(#d)"/><path d="M335.54 267.726h-2.594c.275.324.685.527 1.143.527h1.384c.027-.173.049-.35.067-.526" fill="#2F9148" mask="url(#d)"/><path d="M335.588 266.754h-3c0 .37.135.71.358.973h2.594c.032-.32.048-.645.048-.973" fill="#2A8C48" mask="url(#d)"/><path d="M400.26 230.018h-13.353v3h13.352a14.4 14.4 0 0 1 10.222 4.234 14.407 14.407 0 0 1 4.234 10.222v53.104a95.35 95.35 0 0 1 3-.425v-52.68c0-9.64-7.815-17.454-17.456-17.455m-16.352 0h-23.312 3.4a1.5 1.5 0 1 1 0 3h19.912v-3m33.808 73.159a89.49 89.49 0 0 0-3 .44v13.594l3 .009v-14.043" fill="#8CC04D" mask="url(#d)"/><path d="M417.715 300.153a89.81 89.81 0 0 0-3 .425v3.039a89.49 89.49 0 0 1 3-.44v-3.024" fill="#86BD4D" mask="url(#d)"/><path d="M363.995 230.018h-3.4v3h3.4a1.5 1.5 0 0 0 0-3m19.912 3h3v-3h-3zm-26.311-3h-53.918a9.89 9.89 0 0 1 0 3h53.918v-3" fill="#7DB94D" mask="url(#d)"/><path d="M414.716 320.21v23.875h3V320.22l-3-.009zm0 38.237h3v-11.362h-3v11.362zm0 15.441h3v-12.44h-3v12.44zm0 17.763h3v-14.764h-3v14.764zm3 3h-3v11.318a1.5 1.5 0 1 0 3 0v-11.318z" fill="#8CC04D" mask="url(#d)"/><path fill="#7DB94D" mask="url(#d)" d="M414.715 347.086h3v-3h-3z"/><path fill="#2F9148" mask="url(#d)" d="M414.715 376.888h3v-3h-3z"/><path fill="#4D9117" mask="url(#d)" d="M414.715 361.447h3v-3h-3z"/><path fill="#2F9148" mask="url(#d)" d="M414.715 394.652h3v-3h-3z"/><path fill="#458B17" mask="url(#d)" d="M357.595 233.018h3v-3h-3z"/><path d="M293.74 221.769a9.732 9.732 0 0 0-7.211 3.527 13.617 13.617 0 0 1 1.254 3.673 6.786 6.786 0 0 1 1.482-2.227 6.726 6.726 0 0 1 4.775-1.978 6.727 6.727 0 0 1 4.775 1.978 6.727 6.727 0 0 1 1.81 3.276h3.053a9.75 9.75 0 0 0-3.728-6.26h-4.791a1.5 1.5 0 0 1-1.418-1.99m9.938 11.25h-3.053a6.728 6.728 0 0 1-1.811 3.275 6.723 6.723 0 0 1-4.775 1.978 6.721 6.721 0 0 1-4.775-1.978 6.786 6.786 0 0 1-1.482-2.227 13.617 13.617 0 0 1-1.254 3.673 9.729 9.729 0 0 0 7.212 3.527 1.5 1.5 0 0 1 1.418-1.989h4.79a9.751 9.751 0 0 0 3.73-6.26" fill="#55C1F0" mask="url(#d)"/><path d="M294.04 221.764c-.1 0-.2.002-.3.005a1.5 1.5 0 0 0 1.419 1.989h4.79a9.71 9.71 0 0 0-5.91-1.994m8.254 8.254h-1.667c.109.482.167.984.167 1.5a1.5 1.5 0 0 1 1.5-1.5m-1.5 1.5c0 .516-.058 1.018-.167 1.5h3.052-1.385a1.5 1.5 0 0 1-1.5-1.5m-.844 7.759h-4.79a1.5 1.5 0 0 0-1.418 1.989 9.722 9.722 0 0 0 6.208-1.989M286.242 154a9.718 9.718 0 0 0-2.242 6.222 9.719 9.719 0 0 0 2.242 6.221 13.62 13.62 0 0 0 1.255-3.673 6.734 6.734 0 0 1-.497-2.548c0-.904.177-1.764.497-2.549a13.62 13.62 0 0 0-1.255-3.673" fill="#4CBAEF" mask="url(#d)"/><path d="M303.678 230.018h-1.385a1.5 1.5 0 0 0-1.5 1.5h3c0-.51-.039-1.011-.115-1.5m.115 1.5h-3a1.5 1.5 0 0 0 1.5 1.5h1.385c.076-.49.115-.99.115-1.5" fill="#2A8C48" mask="url(#d)"/><path d="M399.705 430.329c-6.063 2.257-10.381 8.096-10.382 14.946a1.5 1.5 0 0 1 1.5-1.5h1.586a12.898 12.898 0 0 1 3.705-7.652 12.895 12.895 0 0 1 9.152-3.791 12.893 12.893 0 0 1 8.97 3.612 16.103 16.103 0 0 1 1.979-2.257 15.923 15.923 0 0 0-5.388-3.358 8.689 8.689 0 0 1-5.561 2.003 8.689 8.689 0 0 1-5.561-2.003m18.49 5.616l-.182.178a13.075 13.075 0 0 0-1.798 2.247 12.873 12.873 0 0 1 1.995 6.905 1.5 1.5 0 1 0 1.499-1.5h1.43a15.863 15.863 0 0 0-2.944-7.83" fill="#55C1F0" mask="url(#d)"/><path d="M411.291 443.775h-18.883c-.056.492-.086.992-.086 1.5a1.5 1.5 0 0 1-1.499 1.5h21.898a1.5 1.5 0 1 0-1.5-1.5c0-.506.024-1.006.07-1.5" fill="#8CC04D" mask="url(#d)"/><path d="M392.408 443.775h-1.585a1.5 1.5 0 1 0 1.5 1.5c0-.508.028-1.008.085-1.5" fill="#2F9148" mask="url(#d)"/><path d="M405.266 414.888a8.722 8.722 0 0 0-5.561 15.44 15.918 15.918 0 0 1 5.56-.996c1.957 0 3.83.352 5.562.996a8.707 8.707 0 0 0 3.16-6.718h-3a5.699 5.699 0 0 1-1.675 4.046 5.701 5.701 0 0 1-4.046 1.676 5.703 5.703 0 0 1-4.046-1.676 5.698 5.698 0 0 1-1.675-4.046c0-1.585.638-3.006 1.675-4.046a5.699 5.699 0 0 1 4.046-1.676 5.697 5.697 0 0 1 4.046 1.676 5.697 5.697 0 0 1 1.676 4.046h3a8.724 8.724 0 0 0-8.722-8.722" fill="#8CC04D" mask="url(#d)"/><path d="M405.266 429.332c-1.956 0-3.83.353-5.561.997a8.689 8.689 0 0 0 5.56 2.003 8.689 8.689 0 0 0 5.562-2.003 15.918 15.918 0 0 0-5.561-.997" fill="#2F9148" mask="url(#d)"/><path d="M432.726 430.329a8.69 8.69 0 0 1-5.56 2.003 8.699 8.699 0 0 1-5.563-2.003 15.949 15.949 0 0 0-5.388 3.358 16.062 16.062 0 0 1 1.98 2.258 12.888 12.888 0 0 1 8.97-3.613 12.895 12.895 0 0 1 9.152 3.79 12.898 12.898 0 0 1 3.705 7.654h1.586a1.5 1.5 0 0 1 1.5 1.499c0-6.85-4.319-12.69-10.382-14.946m-18.49 5.615a15.86 15.86 0 0 0-2.945 7.832h1.431c.828 0 1.5.67 1.5 1.499a12.88 12.88 0 0 1 1.993-6.905 13.07 13.07 0 0 0-1.797-2.247l-.182-.18" fill="#55C1F0" mask="url(#d)"/><path d="M416.215 433.687a15.991 15.991 0 0 0-1.979 2.257c.061.06.122.118.182.18a13.025 13.025 0 0 1 1.797 2.245 13.025 13.025 0 0 1 1.98-2.425 16.062 16.062 0 0 0-1.98-2.257" fill="#096FD5" mask="url(#d)"/><path d="M412.722 443.775h-1.43c-.047.494-.07.994-.07 1.5a1.5 1.5 0 1 0 1.5-1.5" fill="#1A6D16" mask="url(#d)"/><path d="M440.022 443.775h-18.883c.047.494.07.994.07 1.5a1.5 1.5 0 0 1-1.5 1.5h21.899a1.5 1.5 0 0 1-1.5-1.5c0-.508-.029-1.008-.086-1.5" fill="#8CC04D" mask="url(#d)"/><path d="M421.14 443.775h-1.43a1.5 1.5 0 1 0 1.5 1.5c0-.506-.025-1.006-.07-1.5" fill="#106E44" mask="url(#d)"/><path d="M441.608 443.775h-1.586c.057.492.086.992.086 1.5a1.5 1.5 0 1 0 1.5-1.5" fill="#2F9148" mask="url(#d)"/><path d="M427.165 414.888a8.723 8.723 0 0 0-5.562 15.44 15.923 15.923 0 0 1 5.562-.996c1.956 0 3.83.352 5.561.996a8.703 8.703 0 0 0 3.16-6.718h-3a5.698 5.698 0 0 1-1.675 4.046 5.705 5.705 0 0 1-4.046 1.676 5.701 5.701 0 0 1-4.046-1.676 5.699 5.699 0 0 1-1.676-4.046 5.697 5.697 0 0 1 1.676-4.046 5.697 5.697 0 0 1 4.046-1.676 5.7 5.7 0 0 1 4.046 1.676 5.698 5.698 0 0 1 1.675 4.046h3a8.722 8.722 0 0 0-8.721-8.722" fill="#8CC04D" mask="url(#d)"/><path d="M427.165 429.332c-1.957 0-3.83.352-5.562.997a8.699 8.699 0 0 0 5.562 2.003 8.689 8.689 0 0 0 5.561-2.003 15.895 15.895 0 0 0-5.561-.997" fill="#2F9148" mask="url(#d)"/><path d="M451.125 236.758c-9.945.001-18.005 8.061-18.007 18.007v44.749a95.84 95.84 0 0 1 3 .171v-44.92a14.954 14.954 0 0 1 4.396-10.61 14.957 14.957 0 0 1 10.611-4.397h8.863a1.5 1.5 0 0 0 0-2.999h-8.863m-18.01 65.758a15.007 15.007 0 0 1-15.002 14.704h-.05l-.347-.002v3l.34.002h.007l.05-.002a18.004 18.004 0 0 0 17.999-17.526 87.105 87.105 0 0 0-2.996-.176" fill="#8CC04D" mask="url(#d)"/><path d="M433.119 299.514v2.7c0 .1-.001.202-.003.302a92.46 92.46 0 0 1 2.996.177c.005-.16.007-.32.007-.48v-2.528a92.89 92.89 0 0 0-3-.171" fill="#86BD4D" mask="url(#d)"/><path d="M178.924 253.047h-55.33v3h55.33c4.149 0 7.89 1.677 10.61 4.395a14.948 14.948 0 0 1 4.396 10.611v30.53c.002 9.924 8.029 17.975 17.952 18.006l12.988.04v-3l-12.978-.04c-8.27-.024-14.962-6.736-14.961-15.006v-30.53c-.002-9.945-8.061-18.005-18.007-18.006m48.946 63.591v3l13.992.043v-3l-13.992-.043m16.99.052v3l126.244.387a91.448 91.448 0 0 1 3.88-2.988l-130.123-.399m135.365.415a89.734 89.734 0 0 0-4.26 2.986l7.94.025v-3l-3.68-.01m6.68.02v3l27.81.084v-3l-27.81-.085" fill="#8CC04D" mask="url(#d)"/><path d="M374.984 317.09a91.448 91.448 0 0 0-3.88 2.987l4.863.015a89.029 89.029 0 0 1 4.259-2.987l-5.242-.016" fill="#86BD4D" mask="url(#d)"/><path fill="#7DB94D" mask="url(#d)" d="M383.907 317.116v3l3 .01v-3z"/><path fill="#4D9117" mask="url(#d)" d="M224.87 316.63v3l3 .008v-3z"/><path fill="#2F9148" mask="url(#d)" d="M241.861 316.681v3l3 .01v-3z"/><path fill="#4D9117" mask="url(#d)" d="M414.716 317.21v3l3 .01v-3z"/><path d="M137.146 326.092a1.5 1.5 0 1 1 0 3 3.85 3.85 0 0 1 2.742 1.137 3.858 3.858 0 0 1 1.137 2.743v4.33c0 .143-.008.286-.024.426.841.709 1.69 1.41 2.543 2.104.31-.784.48-1.637.48-2.53v-4.33a6.88 6.88 0 0 0-6.878-6.88m2.354 14.293c-.654.5-1.464.795-2.354.796H85.267l2.473 3h49.406a6.86 6.86 0 0 0 4.704-1.86 190.098 190.098 0 0 1-2.35-1.937" fill="#55C1F0" mask="url(#d)"/><path d="M141.002 337.729a3.858 3.858 0 0 1-1.502 2.656c.778.65 1.562 1.297 2.35 1.936a6.877 6.877 0 0 0 1.694-2.49 188.902 188.902 0 0 1-2.542-2.102" fill="#51BEF0" mask="url(#d)"/><path d="M137.146 326.092h-8.763a187.994 187.994 0 0 0 3.04 3h5.723a1.5 1.5 0 0 1 0-3m-12.953 0h-51.36l2.472 3h51.834a193.785 193.785 0 0 1-2.946-3" fill="#8CC04D" mask="url(#d)"/><path d="M128.383 326.092h-4.19a193.72 193.72 0 0 0 2.945 3h4.285a199.218 199.218 0 0 1-3.04-3" fill="#86BD4D" mask="url(#d)"/><path d="M70.883 328.444c.048.07.103.136.162.197l-.162-.197" fill="#8CC04D" mask="url(#d)"/><path d="M137.146 326.092a1.5 1.5 0 1 0 0 3 1.5 1.5 0 0 0 0-3" fill="#2F9148" mask="url(#d)"/><path d="M53.774 236.527c-8.97 0-18.185 2.291-26.847 7.293-8.96 5.172-15.706 12.307-20.195 20.408C2.242 272.33 0 281.395 0 290.46c0 9.063 2.242 18.13 6.732 26.231 4.49 8.101 11.234 15.236 20.195 20.408a54.684 54.684 0 0 0 13.188 5.491l2.11-2.559c-4.666-1.116-9.3-2.934-13.798-5.53-8.49-4.903-14.834-11.623-19.07-19.265-4.236-7.64-6.358-16.207-6.358-24.776 0-8.569 2.122-17.136 6.357-24.777 4.237-7.64 10.581-14.36 19.071-19.264 8.21-4.738 16.885-6.89 25.347-6.89 3.712 0 7.382.414 10.951 1.21a14.97 14.97 0 0 1 2.304-2.532 53.354 53.354 0 0 0-13.255-1.679m14.734 4.395" fill="#55C1F0" mask="url(#d)"/><path d="M53.855 251.827c-21.337 0-38.633 17.296-38.633 38.633 0 20.48 15.935 37.238 36.084 38.55l2.405-2.917c-9.788-.04-18.631-4.018-25.052-10.437-6.451-6.453-10.436-15.352-10.438-25.196.002-9.844 3.986-18.743 10.438-25.196 6.453-6.451 15.352-10.437 25.196-10.437 3.36 0 6.61.465 9.69 1.333a14.788 14.788 0 0 1-1.236-3.405 38.751 38.751 0 0 0-8.454-.928m1.78 76.647l-.11.133c.04-.042.077-.087.11-.133" fill="#8CC04D" mask="url(#d)"/><path d="M91.698 294.731v-58.338a3.859 3.859 0 0 1 1.136-2.743 3.863 3.863 0 0 1 2.742-1.136h21.14a1.499 1.499 0 1 0 0-3h-21.14a6.88 6.88 0 0 0-6.878 6.88v58.337a1.5 1.5 0 0 0 3 0" fill="#55C1F0" mask="url(#d)"/><path d="M116.716 229.515a1.5 1.5 0 1 1 0 3c1.075 0 2.035.432 2.742 1.136a3.86 3.86 0 0 1 1.137 2.742v18.155a1.5 1.5 0 0 1 1.5-1.5h1.5v-16.655a6.879 6.879 0 0 0-6.879-6.878m3.88 25.033v40.184a3.86 3.86 0 0 1-1.138 2.74 3.86 3.86 0 0 1-2.742 1.138h-10.88a194.135 194.135 0 0 0 2.065 2.999h7.142v-1.5h.001a1.5 1.5 0 1 1 3 0v1.372a6.878 6.878 0 0 0 5.55-6.75v-38.684h-1.5a1.499 1.499 0 0 1-1.499-1.5m-28.898 40.185a1.5 1.5 0 0 1-3 0 6.88 6.88 0 0 0 5.551 6.749v-1.371a1.5 1.5 0 0 1 3 0v1.499h7a189.14 189.14 0 0 1-2.017-3h-6.655a3.86 3.86 0 0 1-2.743-1.136 3.858 3.858 0 0 1-1.136-2.741" fill="#8CC04D" mask="url(#d)"/><path d="M105.836 298.61h-3.605a189.227 189.227 0 0 0 2.017 3h3.653a187.443 187.443 0 0 1-2.065-3" fill="#86BD4D" mask="url(#d)"/><path d="M123.595 253.047h-1.5a1.5 1.5 0 1 0 0 3h1.5v-3" fill="#4D9117" mask="url(#d)"/><path d="M116.716 229.515a1.5 1.5 0 1 0-.001 2.998 1.5 1.5 0 0 0 .001-2.998M90.197 293.23a1.5 1.5 0 1 0 .002 3.001 1.5 1.5 0 0 0-.002-3.001" fill="#2F9148" mask="url(#d)"/><path d="M127.851 359.122h-27.798l.45.546a1.5 1.5 0 0 1-1.117 2.454h28.465a1.5 1.5 0 1 1 0-3m-31.686 0H30.378l-2.023 2.454a1.499 1.499 0 0 1-1.117.546h72.066a1.499 1.499 0 0 1-1.116-.546l-2.023-2.454m-69.676 0h-1.076A6.88 6.88 0 0 0 18.534 366v4.33a6.88 6.88 0 0 0 6.88 6.879 1.5 1.5 0 1 1 0-3 3.863 3.863 0 0 1-2.744-1.136 3.863 3.863 0 0 1-1.136-2.743V366a3.863 3.863 0 0 1 1.136-2.743 3.859 3.859 0 0 1 2.743-1.136h1.744a1.5 1.5 0 0 1-1.118-2.454l.45-.546" fill="#8CC04D" mask="url(#d)"/><path d="M127.851 359.122a1.5 1.5 0 0 1 0 3c1.075 0 2.036.432 2.742 1.136A3.86 3.86 0 0 1 131.73 366v4.33a3.86 3.86 0 0 1-1.137 2.743 3.859 3.859 0 0 1-2.742 1.136H25.413a1.5 1.5 0 0 1 0 3h102.438a6.878 6.878 0 0 0 6.878-6.88V366c0-3.8-3.079-6.877-6.878-6.878" fill="#55C1F0" mask="url(#d)"/><path d="M127.851 359.122a1.5 1.5 0 1 0-.001 2.998 1.5 1.5 0 0 0 .001-2.998M25.413 374.21a1.5 1.5 0 1 0 0 3 1.5 1.5 0 0 0 0-3" fill="#2F9148" mask="url(#d)"/><path d="M116.543 201.712H95.75c-.395 0-.781.16-1.06.439-.28.28-.44.666-.44 1.06v11.525a1.506 1.506 0 0 0 1.5 1.5h4.022v-1.5a1.5 1.5 0 0 1 1.5-1.5H97.25v-8.524h17.794v8.524h-4.02a1.5 1.5 0 0 1 1.5 1.5v1.5h4.02c.401 0 .777-.156 1.06-.44.285-.283.44-.66.44-1.06h-1.5v-1.5 1.5h1.5v-11.524c0-.395-.16-.781-.44-1.061a1.509 1.509 0 0 0-1.06-.44m-5.52 11.525h-9.752a1.5 1.5 0 0 1 1.5 1.5v1.5h6.75v-1.5a1.5 1.5 0 0 1 1.501-1.5M94.249 301.48v9.544c0 .395.16.78.439 1.06.28.28.666.44 1.06.44h16.574a188.29 188.29 0 0 1-2.338-3H97.249v-7.915h-1.672c-.455 0-.9-.044-1.328-.128m23.794 0a6.9 6.9 0 0 1-1.326.128h-1.674v7.915h-1.267c.79 1.008 1.59 2.009 2.399 3h.369c.4 0 .777-.156 1.06-.44a1.49 1.49 0 0 0 .439-1.06v-9.543" fill="#55C1F0" mask="url(#d)"/><path d="M113.776 309.524h-3.793c.77 1.008 1.55 2.008 2.34 3h3.852a198.076 198.076 0 0 1-2.399-3" fill="#51BEF0" mask="url(#d)"/><path d="M116.543 298.61a1.5 1.5 0 0 0-1.5 1.5v1.5h1.673c.454 0 .898-.045 1.328-.129v-1.37a1.5 1.5 0 0 0-1.5-1.5m-20.794 0a1.5 1.5 0 0 0-1.501 1.5v1.37c.43.084.874.128 1.328.128h1.672v-1.499a1.5 1.5 0 0 0-1.5-1.5" fill="#2F9148" mask="url(#d)"/><path fill="#8CC04D" mask="url(#d)" d="M109.522 229.515h3v-13.279h-3z"/><path d="M112.522 229.515h-3v1.5a1.5 1.5 0 1 0 3 0v-1.5m-1.5-16.279a1.5 1.5 0 0 0-1.5 1.5v1.5h3v-1.5a1.5 1.5 0 0 0-1.5-1.5" fill="#2F9148" mask="url(#d)"/><path fill="#8CC04D" mask="url(#d)" d="M99.77 229.515h3v-13.279h-3z"/><path d="M102.77 229.515h-3v1.5a1.5 1.5 0 0 0 3 0v-1.5m-1.5-16.279a1.5 1.5 0 0 0-1.5 1.5v1.5h3v-1.5a1.5 1.5 0 0 0-1.5-1.5" fill="#2F9148" mask="url(#d)"/><path d="M78.224 234.602c.235 1.048.477 2.084.729 3.125a11.85 11.85 0 0 1 6.264 3.289 11.843 11.843 0 0 1 3.48 8.403v-8.962a14.87 14.87 0 0 0-10.473-5.855m-3.068.026a14.823 14.823 0 0 0-8.127 3.578c.27.069.539.141.808.214a1.5 1.5 0 0 1 .672 2.502 11.83 11.83 0 0 1 7.323-3.346c-.234-.984-.457-1.959-.676-2.948" fill="#8CC04D" mask="url(#d)"/><path d="M76.816 234.536c-.561 0-1.115.031-1.66.092.219.99.442 1.964.676 2.948a12.03 12.03 0 0 1 3.121.151 189.158 189.158 0 0 1-.73-3.125 14.902 14.902 0 0 0-1.407-.066" fill="#86BD4D" mask="url(#d)"/><path d="M64.725 240.738a14.816 14.816 0 0 0-2.792 8.68c0 1.148.13 2.264.375 3.337.924.206 1.835.445 2.732.716a1.5 1.5 0 1 1-.868 2.872 41.48 41.48 0 0 0-.628-.184c2.46 4.831 7.478 8.14 13.271 8.141 2.461 0 4.782-.598 6.827-1.655-.365-.939-.723-1.882-1.074-2.828a11.819 11.819 0 0 1-5.753 1.483 11.842 11.842 0 0 1-8.402-3.48 11.837 11.837 0 0 1-3.48-8.402 11.837 11.837 0 0 1 3.48-8.402l.066-.066a1.503 1.503 0 0 1-1.432.363 52.441 52.441 0 0 0-2.322-.575m23.972 8.68a11.837 11.837 0 0 1-3.48 8.402l-.138.136c.368 1.006.744 2.007 1.128 3.006a14.96 14.96 0 0 0 2.49-2.583v-8.96" fill="#8CC04D" mask="url(#d)"/><path d="M85.08 257.956a11.95 11.95 0 0 1-2.512 1.862c.351.946.71 1.888 1.074 2.827a14.83 14.83 0 0 0 2.565-1.683c-.384-.998-.76-2-1.128-3.006" fill="#86BD4D" mask="url(#d)"/><path d="M67.03 238.206a14.97 14.97 0 0 0-2.305 2.532c.78.174 1.554.366 2.322.576a1.503 1.503 0 0 0 1.843-1.052 1.5 1.5 0 0 0-1.053-1.842 56.49 56.49 0 0 0-.808-.214" fill="#2F9148" mask="url(#d)"/><path d="M62.309 252.755a14.786 14.786 0 0 0 1.235 3.405c.21.059.42.12.629.183a1.501 1.501 0 0 0 .867-2.871 38.266 38.266 0 0 0-2.731-.717" fill="#4D9117" mask="url(#d)"/><path d="M88.698 240.458v8.96h3a14.82 14.82 0 0 0-3-8.96m3 8.96h-3v8.96a14.816 14.816 0 0 0 3-8.96" fill="#2F9148" mask="url(#d)"/><path d="M83.013 249.418h-1.5a4.676 4.676 0 0 1-1.376 3.322 4.68 4.68 0 0 1-3.322 1.376 4.676 4.676 0 0 1-3.321-1.376 4.676 4.676 0 0 1-1.376-3.322 4.676 4.676 0 0 1 1.376-3.322 4.676 4.676 0 0 1 3.32-1.376 4.68 4.68 0 0 1 3.323 1.376 4.68 4.68 0 0 1 1.376 3.322h3a7.699 7.699 0 0 0-15.395 0 7.698 7.698 0 0 0 15.395 0h-1.5zM68.034 334.64h-1.5a3.267 3.267 0 0 1-3.263 3.263 3.268 3.268 0 0 1-3.263-3.263 3.268 3.268 0 0 1 3.263-3.263 3.267 3.267 0 0 1 3.263 3.263h3a6.264 6.264 0 1 0-12.527.001 6.264 6.264 0 0 0 12.527 0h-1.5z" fill="#55C1F0" mask="url(#d)"/><path d="M63.255 319.49c-2.564 0-5.105 1.206-6.948 3.453l-2.596 3.15h.143c.183-.001.366-.002.547-.005h.025a1.5 1.5 0 0 1 1.21 2.386l2.985-3.623c1.347-1.624 3.01-2.355 4.65-2.361a1.5 1.5 0 1 1 0-3h-.016m-7.73 9.117c-.268.29-.65.475-1.077.48a39.099 39.099 0 0 1-3.14-.077l-9.084 11.02c.295.07.59.138.885.203h.001a1.5 1.5 0 1 1-.645 2.93 53.57 53.57 0 0 1-2.35-.574L26.49 359.122h3.89l25.146-30.515m-28.287 33.515h-.082.082" fill="#8CC04D" mask="url(#d)"/><path d="M42.224 340.03l-2.109 2.559c.782.21 1.566.4 2.35.574a1.5 1.5 0 0 0 .645-2.93 56.39 56.39 0 0 1-.886-.203" fill="#2F9148" mask="url(#d)"/><path d="M54.402 326.088c-.182.003-.365.004-.547.005h-.144l-2.404 2.917a39.096 39.096 0 0 0 3.142.078 1.49 1.49 0 0 0 1.077-.481l.11-.133a1.5 1.5 0 0 0-1.209-2.386h-.025m-24.024 33.034H26.49l-.45.546a1.5 1.5 0 0 0 1.117 2.454h.082a1.499 1.499 0 0 0 1.116-.546l2.023-2.454" fill="#4D9117" mask="url(#d)"/><path d="M63.287 319.49h-.016a1.5 1.5 0 1 1 0 3c1.641.006 3.303.736 4.65 2.36l2.961 3.594a1.5 1.5 0 0 1 1.236-2.351h.714l-2.596-3.15c-1.844-2.247-4.385-3.453-6.949-3.453m7.758 9.15l25.12 30.482h3.888L87.74 344.18h-3.18a1.5 1.5 0 0 1 0-3h.708l-9.962-12.088h-3.187c-.42 0-.8-.173-1.073-.452m28.341 33.48h-.082.082" fill="#55C1F0" mask="url(#d)"/><path d="M85.268 341.18h-.71a1.5 1.5 0 0 0 0 3h3.182l-2.472-3" fill="#1C92E2" mask="url(#d)"/><path d="M72.833 326.092h-.715a1.5 1.5 0 0 0-1.235 2.353l.162.195c.272.28.653.452 1.073.452h3.187l-2.472-3m27.22 33.03h-3.888l2.023 2.454c.286.348.698.534 1.116.546h.082a1.5 1.5 0 0 0 1.117-2.453v-.001l-.45-.546M63.272 319.49a1.5 1.5 0 1 0 0 3.001 1.5 1.5 0 0 0 0-3.001" fill="#2F9148" mask="url(#d)"/><path d="M492.625 218.538c-12.649.001-22.902 10.254-22.902 22.903 0 12.65 10.253 22.901 22.902 22.902 12.65 0 22.902-10.253 22.902-22.902h-2.999a19.839 19.839 0 0 1-5.829 14.073 19.842 19.842 0 0 1-14.074 5.83 19.838 19.838 0 0 1-14.073-5.83 19.835 19.835 0 0 1-5.83-14.073 19.838 19.838 0 0 1 5.83-14.074 19.828 19.828 0 0 1 14.073-5.829 19.833 19.833 0 0 1 14.074 5.83 19.84 19.84 0 0 1 5.83 14.073h2.998c0-12.649-10.253-22.902-22.902-22.903" fill="#8CC04D" mask="url(#d)"/><path d="M493.03 240.533h-1.5a5.126 5.126 0 0 1-1.508 3.64 5.126 5.126 0 0 1-3.64 1.508 5.126 5.126 0 0 1-3.64-1.508 5.126 5.126 0 0 1-1.508-3.64 5.124 5.124 0 0 1 1.508-3.64 5.126 5.126 0 0 1 3.64-1.508 5.126 5.126 0 0 1 3.64 1.508 5.124 5.124 0 0 1 1.508 3.64h3a8.148 8.148 0 1 0-16.296 0 8.148 8.148 0 0 0 16.296 0h-1.5z" fill="#55C1F0" mask="url(#d)"/><path d="M525.403 284.145h-.01a12.832 12.832 0 0 0-9.096 3.768v.001a12.833 12.833 0 0 0-3.77 9.097 12.833 12.833 0 0 0 3.77 9.098 12.829 12.829 0 0 0 9.093 3.77h.005a12.837 12.837 0 0 0 9.098-3.77 12.837 12.837 0 0 0 3.769-9.098 12.837 12.837 0 0 0-3.77-9.098 12.834 12.834 0 0 0-9.09-3.768m-6.984 5.89a9.825 9.825 0 0 1 6.976-2.89 9.83 9.83 0 0 1 6.978 2.89 9.83 9.83 0 0 1 2.89 6.976 9.835 9.835 0 0 1-2.891 6.978 9.829 9.829 0 0 1-6.976 2.89 9.828 9.828 0 0 1-6.977-2.89 9.83 9.83 0 0 1-2.89-6.978 9.826 9.826 0 0 1 2.89-6.976" fill="#8CC04D" mask="url(#d)"/><path d="M524.902 297.2l1.061 1.06c.4-.398.91-.591 1.436-.593a2.01 2.01 0 0 1 1.435.595c.4.4.593.91.595 1.436a2.023 2.023 0 0 1-.595 1.436c-.4.398-.91.592-1.435.594a2.016 2.016 0 0 1-1.436-.595 2.01 2.01 0 0 1-.595-1.435 2.011 2.011 0 0 1 .594-1.436l-1.06-1.061-1.06-1.061a5.015 5.015 0 0 0-1.474 3.558 5.026 5.026 0 0 0 5.031 5.03 5.027 5.027 0 0 0 5.03-5.03 5.028 5.028 0 0 0-5.03-5.031 5.018 5.018 0 0 0-3.558 1.473l1.061 1.06zm2.796-44.9c-8.324 0-15.071 6.746-15.072 15.072h3-3c0 8.323 6.748 15.07 15.072 15.07 8.323 0 15.07-6.747 15.07-15.07 0-8.326-6.747-15.072-15.07-15.073m-12.072 15.073a12.03 12.03 0 0 1 3.536-8.538 12.025 12.025 0 0 1 8.536-3.535c3.338 0 6.346 1.35 8.536 3.535a12.034 12.034 0 0 1 3.535 8.538 12.03 12.03 0 0 1-3.535 8.534 12.03 12.03 0 0 1-8.536 3.536 12.026 12.026 0 0 1-8.536-3.536 12.027 12.027 0 0 1-3.536-8.534" fill="#55C1F0" mask="url(#d)"/><path d="M531.657 261.08a5.716 5.716 0 0 0-5.716 5.715h3-3a5.716 5.716 0 0 0 11.43 0 5.716 5.716 0 0 0-5.714-5.715m-2.716 5.715a2.72 2.72 0 0 1 2.716-2.715 2.72 2.72 0 0 1 2.715 2.715 2.72 2.72 0 0 1-2.715 2.716 2.72 2.72 0 0 1-2.716-2.716" fill="#8CC04D" mask="url(#d)"/><path d="M493.03 265.871c-10.391 0-18.813 8.422-18.814 18.813.001 10.392 8.423 18.813 18.814 18.814 10.391 0 18.812-8.422 18.814-18.814h-3a15.762 15.762 0 0 1-4.632 11.183 15.757 15.757 0 0 1-11.182 4.631 15.757 15.757 0 0 1-11.182-4.63 15.762 15.762 0 0 1-4.632-11.184 15.761 15.761 0 0 1 4.632-11.182 15.76 15.76 0 0 1 11.182-4.63 15.76 15.76 0 0 1 11.182 4.63 15.761 15.761 0 0 1 4.632 11.182h3c-.002-10.39-8.423-18.812-18.814-18.813" fill="#55C1F0" mask="url(#d)"/><path d="M487.979 277.072a6.879 6.879 0 1 0 6.878 6.878h-3a3.859 3.859 0 0 1-1.136 2.743 3.86 3.86 0 0 1-2.742 1.136 3.862 3.862 0 0 1-2.742-1.137 3.863 3.863 0 0 1-1.136-2.742 3.863 3.863 0 0 1 1.136-2.741 3.862 3.862 0 0 1 2.742-1.137 3.86 3.86 0 0 1 2.742 1.137 3.859 3.859 0 0 1 1.136 2.741h3a6.879 6.879 0 0 0-6.878-6.877" fill="#8CC04D" mask="url(#d)"/></g></svg>